<svg xmlns="http://www.w3.org/2000/svg" width="29" height="29" viewBox="0 0 29 29" fill="none">
  <path d="M16.2047 0.644043V2.57248C18.1121 2.57248 19.899 3.05459 21.5655 4.01881C23.1516 4.96294 24.4165 6.22848 25.3601 7.81542C26.3239 9.48271 26.8057 11.2705 26.8057 13.1789H28.7332C28.7332 10.909 28.161 8.79972 27.0165 6.8512C25.9123 4.96294 24.4165 3.46639 22.5292 2.36156C20.5816 1.21655 18.4735 0.644043 16.2047 0.644043ZM6.23614 3.5367C5.69405 3.5367 5.22222 3.70745 4.82067 4.04894L1.71866 7.21278L1.80901 7.15252C1.30707 7.57436 0.97579 8.09665 0.815169 8.71937C0.674625 9.3421 0.71478 9.94473 0.935635 10.5273C1.49781 12.0941 2.25072 13.7012 3.19437 15.3484C4.5195 17.6183 6.0956 19.6572 7.92267 21.4651C10.854 24.4181 14.4981 26.7482 18.855 28.4557H18.8851C19.4673 28.6566 20.0496 28.6968 20.6318 28.5762C21.2342 28.4557 21.7662 28.1946 22.228 27.7928L25.2698 24.7495C25.6713 24.3477 25.8721 23.8556 25.8721 23.273C25.8721 22.6704 25.6713 22.1682 25.2698 21.7665L21.3245 17.7891C20.923 17.3873 20.421 17.1864 19.8187 17.1864C19.2164 17.1864 18.7144 17.3873 18.3129 17.7891L16.4155 19.7175C14.8896 18.9943 13.5645 18.1004 12.4401 17.0358C11.3158 15.951 10.4223 14.6353 9.75978 13.0885L11.6872 11.1601C12.1089 10.7181 12.3197 10.1958 12.3197 9.5932C12.3197 8.97047 12.0787 8.46827 11.5969 8.0866L11.6872 8.177L7.65162 4.04894C7.25007 3.70745 6.77824 3.5367 6.23614 3.5367ZM16.2047 4.50092V6.42935C17.4294 6.42935 18.5538 6.73067 19.5778 7.33331C20.6218 7.93595 21.445 8.75955 22.0473 9.80412C22.6496 10.8286 22.9508 11.9535 22.9508 13.1789H24.8783C24.8783 11.612 24.4868 10.1557 23.7037 8.80977C22.9207 7.50406 21.8767 6.45949 20.5716 5.67606C19.2264 4.89263 17.7708 4.50092 16.2047 4.50092ZM6.23614 5.46514C6.29638 5.46514 6.36665 5.49527 6.44696 5.55553L10.3922 9.5932C10.4123 9.67355 10.3922 9.74385 10.332 9.80412L7.47092 12.6365L7.68174 13.2391L8.07325 14.0828C8.39449 14.7658 8.76593 15.4287 9.18756 16.0715C9.76981 16.9755 10.4123 17.7489 11.115 18.3917C12.0587 19.3157 13.1931 20.1594 14.5182 20.9228C15.1807 21.3044 15.7429 21.5857 16.2047 21.7665L16.807 22.0376L19.7283 19.1149C19.7685 19.0747 19.7986 19.0546 19.8187 19.0546C19.8388 19.0546 19.8689 19.0747 19.909 19.1149L23.9748 23.1826C24.0149 23.2228 24.035 23.253 24.035 23.273C24.035 23.273 24.0149 23.2931 23.9748 23.3333L20.9631 26.3164C20.5214 26.698 20.0395 26.7985 19.5175 26.6177C15.4217 25.0307 12.0085 22.8612 9.27791 20.1092C7.59139 18.4218 6.11568 16.5034 4.85078 14.354C3.94729 12.8073 3.24457 11.3107 2.74263 9.86438V9.83425C2.66232 9.65346 2.65228 9.44254 2.71251 9.20148C2.77274 8.94034 2.88317 8.73946 3.04379 8.59885L6.02533 5.55553C6.08556 5.49527 6.15583 5.46514 6.23614 5.46514ZM16.2047 8.35779V10.2862C17.0078 10.2862 17.6905 10.5675 18.2526 11.1299C18.8148 11.6924 19.0959 12.3754 19.0959 13.1789H21.0234C21.0234 12.3151 20.8025 11.5116 20.3608 10.7683C19.9392 10.0251 19.3569 9.44254 18.614 9.02069C17.8712 8.57876 17.0681 8.35779 16.2047 8.35779Z" fill="black"/>
</svg>