<svg xmlns="http://www.w3.org/2000/svg" width="559" height="559" viewBox="0 0 559 559" fill="none">
<path d="M545.098 211.064C545.098 211.064 544.853 209.972 544.608 209.365C539.219 190.077 531.748 171.517 522.563 153.928C522.318 153.443 522.073 152.957 521.705 152.472C512.397 135.004 501.252 118.385 488.392 103.221C488.024 102.736 487.657 102.372 487.29 101.887C474.43 86.7234 459.978 73.0157 444.178 60.7636C443.688 60.3997 443.321 60.0358 442.831 59.6718C426.909 47.5411 409.64 37.1086 391.269 28.6171C390.779 28.3745 390.289 28.1319 389.676 27.8893C371.672 19.6404 352.689 13.3324 332.725 8.96529C332.848 8.84398 332.97 8.72268 332.97 8.60137C353.301 12.2406 372.652 18.0634 391.024 25.7057C391.514 25.9483 392.126 26.191 392.616 26.4336C411.355 34.4399 428.991 44.2658 445.158 55.79C445.648 56.1539 446.138 56.3965 446.505 56.7605C462.672 68.406 477.369 81.7498 490.474 96.428C490.841 96.9132 491.209 97.2772 491.576 97.6411C504.559 112.441 515.949 128.453 525.502 145.679C525.747 146.164 525.992 146.649 526.359 147.135C535.79 164.36 543.384 182.678 548.895 201.723C549.017 202.208 549.262 202.815 549.385 203.421C551.1 209.487 552.569 215.673 553.917 221.981L552.937 216.886C529.299 111.106 442.219 25.9483 327.949 7.75222C327.949 7.75222 326.601 8.48006 323.907 8.35875C319.988 8.23745 314.844 7.26699 312.517 6.41783C311.782 6.05391 311.414 5.8113 311.292 5.56868C310.435 5.56868 309.577 5.32607 308.72 5.32607C161.014 -8.98822 27.0255 94.1232 6.57199 240.177C4.97981 252.066 4 263.832 4 275.599V277.54C4 270.262 4.36743 262.983 4.97981 255.583C4.97981 254.977 4.97981 254.37 5.10228 253.764C5.46971 249.518 5.95961 245.272 6.57199 241.027C8.89903 224.407 12.6958 208.274 17.8398 192.867C18.0847 192.261 18.2072 191.776 18.4521 191.169C25.0658 171.881 33.6392 153.564 44.0496 136.581C44.2945 136.096 44.662 135.61 44.9069 135.125C55.4398 118.142 67.8099 102.615 81.6497 88.4217C82.0171 88.0578 82.3845 87.5726 82.8744 87.2086C96.8367 73.137 112.146 60.6423 128.803 49.7246C129.293 49.3607 129.783 49.1181 130.273 48.7542C146.929 38.0791 164.811 28.981 183.55 21.9452C184.039 21.7026 184.652 21.5813 185.142 21.3387C203.881 14.4241 223.599 9.45052 243.808 6.66045C244.42 6.66045 244.91 6.53914 245.522 6.41783C265.241 3.87038 285.572 3.26384 306.148 5.08345C306.148 5.20476 306.27 5.44737 306.515 5.56868C286.429 4.59822 266.711 5.8113 247.359 9.0866C246.747 9.0866 246.257 9.32921 245.645 9.32921C225.926 12.8471 206.698 18.5486 188.326 26.0697C187.836 26.3123 187.346 26.5549 186.734 26.6762C168.485 34.3186 151.093 43.9019 134.804 55.1835C134.314 55.5474 133.824 55.79 133.457 56.1539C117.29 67.5568 102.226 80.5367 88.6308 95.0936C88.2634 95.4576 87.8959 95.9428 87.5285 96.3067C73.9337 110.864 61.9311 126.876 51.5206 144.102C51.2757 144.587 50.9082 145.072 50.6633 145.558C40.3753 162.783 31.9245 181.343 25.4333 200.752C25.3108 201.359 25.0658 201.844 24.9434 202.451C19.9219 217.978 16.1251 234.112 13.7981 250.731C13.1857 254.977 12.6958 259.223 12.3284 263.468C12.3284 264.075 12.3284 264.682 12.2059 265.288C10.3687 286.032 10.9811 306.411 13.6756 326.063C13.6756 326.67 13.7981 327.155 13.9205 327.761C16.7375 347.413 21.759 366.337 28.7401 384.412C28.9851 384.897 29.1075 385.383 29.3525 385.989C36.4561 403.943 45.3968 420.926 56.0522 436.696C56.2972 437.181 56.6646 437.545 56.9096 438.03C67.6874 453.679 80.18 468.236 94.1422 481.094C94.5096 481.458 94.9995 481.822 95.367 482.186C97.2041 483.884 99.1637 485.583 101.123 487.281C99.2862 485.704 97.4491 484.127 95.6119 482.429C95.2445 482.065 94.8771 481.701 94.3872 481.337C80.4249 468.478 67.9324 454.043 57.1545 438.273C56.7871 437.787 56.5421 437.423 56.1747 436.938C45.5193 421.168 36.5786 404.185 29.475 386.232C29.23 385.746 29.1075 385.261 28.8626 384.655C21.8815 366.701 16.9824 347.656 14.1655 328.004C14.1655 327.398 14.043 326.912 13.9205 326.306C11.2261 306.654 10.6137 286.274 12.4508 265.531C12.4508 264.924 12.4508 264.318 12.5733 263.711C12.9407 259.465 13.4306 255.22 14.043 250.974C16.3701 234.355 20.1668 218.221 25.1883 202.693C25.3108 202.087 25.5557 201.602 25.6782 200.995C32.1694 181.586 40.6203 163.026 50.9082 145.8C51.1532 145.315 51.5206 144.83 51.7656 144.344C62.0535 127.119 74.1787 111.106 87.651 96.5493C88.0184 96.1854 88.3859 95.7002 88.7533 95.3363C102.348 80.7793 117.413 67.7994 133.579 56.3965C134.069 56.0326 134.559 55.79 134.927 55.4261C151.216 44.1445 168.608 34.5612 186.856 26.7975C187.346 26.5549 187.836 26.3123 188.449 26.191C206.698 18.5486 225.926 12.9684 245.645 9.32921C246.135 9.32921 246.747 9.0866 247.359 9.0866C266.588 5.8113 286.307 4.47691 306.393 5.44737C306.638 5.56868 307.005 5.8113 307.373 6.05391C288.879 6.05391 270.63 8.11614 252.871 12.2406C252.381 12.2406 251.891 12.4832 251.279 12.6045C233.03 16.9716 215.271 23.5222 198.369 31.8924C197.879 32.135 197.389 32.3776 196.899 32.6203C179.998 41.1118 163.831 51.4229 148.644 63.3111C148.154 63.675 147.787 64.0389 147.297 64.2815C132.232 76.291 118.27 89.9987 105.532 104.92C105.165 105.405 104.798 105.769 104.43 106.254C91.8152 121.296 80.5474 137.794 70.7493 155.383C70.5044 155.869 70.2594 156.354 69.892 156.839C60.2164 174.429 52.2555 193.231 46.0092 212.883C45.8867 213.49 45.6418 213.975 45.5193 214.582C40.7428 230.23 37.0685 246.485 34.7414 263.105C34.1291 267.35 33.6392 271.596 33.2717 275.842C33.2717 276.448 33.2717 277.055 33.1492 277.661C31.3121 298.405 31.5571 318.542 33.8841 337.951C33.8841 338.558 34.0066 339.043 34.1291 339.65C36.5786 359.059 40.9877 377.619 47.1115 395.33C47.234 395.815 47.4789 396.3 47.6014 396.785C53.8477 414.375 61.9311 430.873 71.6067 446.036C71.8516 446.522 72.0966 446.885 72.464 447.371C82.2621 462.534 93.5298 476.242 106.267 488.494C106.635 488.858 107.002 489.222 107.37 489.586C120.23 501.716 134.437 512.27 149.746 520.883C150.236 521.126 150.604 521.368 151.093 521.611C154.89 523.673 158.687 525.614 162.606 527.555L163.831 528.161C159.544 526.221 155.503 524.037 151.338 521.853C150.849 521.611 150.481 521.368 149.991 521.126C134.682 512.513 120.475 501.959 107.737 489.828C107.37 489.464 107.002 489.1 106.635 488.858C93.8973 476.727 82.6295 462.898 72.9539 447.856C72.7089 447.371 72.464 447.007 72.0966 446.522C62.421 431.358 54.46 414.86 48.0913 397.392C47.9688 396.907 47.7239 396.422 47.6014 395.936C41.4776 378.347 37.0685 359.787 34.619 340.377C34.619 339.771 34.4965 339.286 34.374 338.679C32.047 319.27 31.802 299.012 33.6392 278.389C33.6392 277.783 33.6392 277.176 33.7616 276.57C34.1291 272.324 34.619 268.078 35.2313 263.832C37.5584 247.213 41.2327 230.958 46.0092 215.309C46.1317 214.703 46.3766 214.218 46.4991 213.611C52.6229 193.959 60.7063 175.157 70.2594 157.567C70.5044 157.082 70.7493 156.597 71.1168 156.111C80.7923 138.522 92.0601 122.024 104.675 106.982C105.043 106.497 105.41 106.133 105.777 105.647C118.392 90.6053 132.477 76.8975 147.419 64.8881C147.909 64.5241 148.277 64.1602 148.766 63.9176C163.831 51.9082 179.998 41.597 196.899 33.1055C197.389 32.8629 197.879 32.6203 198.369 32.3776C215.271 24.0074 233.03 17.4568 251.156 13.0897C251.646 13.0897 252.136 12.8471 252.748 12.7258C270.507 8.60137 288.634 6.41783 307.128 6.41783C307.25 6.41783 307.373 6.41783 307.618 6.66045C307.985 6.78176 308.352 6.90306 308.842 7.14568C293.043 8.11614 277.244 11.1488 261.934 16.2437C261.444 16.3651 261.077 16.4864 260.587 16.729C244.787 22.0665 229.478 29.4663 214.781 38.6856C214.413 38.9283 213.924 39.1709 213.556 39.5348C198.859 48.8755 184.774 59.9145 171.547 72.6517C171.18 73.0157 170.812 73.3796 170.445 73.7435C157.217 86.4808 144.97 100.795 133.824 116.322C133.457 116.808 133.212 117.172 132.845 117.657C121.699 133.306 111.656 150.289 102.96 168.242C102.716 168.727 102.471 169.213 102.226 169.819C93.6523 187.894 86.3038 206.939 80.6699 226.712C80.5474 227.319 80.3024 227.804 80.18 228.411C75.7708 244.181 72.219 260.557 70.0145 277.176C69.4021 281.422 68.9122 285.668 68.4223 289.914C68.4223 290.52 68.4223 291.127 68.2998 291.733C66.2177 312.355 66.0952 332.371 67.6874 351.538C67.6874 352.023 67.6874 352.63 67.8099 353.115C69.5246 372.281 72.9539 390.477 77.8529 407.582C77.9754 408.067 78.0979 408.552 78.3428 409.037C83.3643 426.142 89.978 442.033 98.0614 456.59C98.3064 456.954 98.5513 457.439 98.7963 457.803C106.88 472.239 116.31 485.34 127.088 496.743C127.333 497.107 127.701 497.349 127.946 497.713C138.723 508.995 150.726 518.699 163.708 526.463C164.076 526.706 164.443 526.948 164.811 527.07C173.384 532.043 182.325 536.168 191.633 539.564C182.447 536.289 173.629 532.165 165.178 527.312C164.811 527.07 164.443 526.827 164.076 526.706C151.093 518.942 139.213 509.238 128.435 497.956C128.19 497.592 127.823 497.349 127.578 496.985C116.923 485.583 107.492 472.481 99.5312 458.046C99.2862 457.682 99.0412 457.197 98.7963 456.833C90.8354 442.276 84.2217 426.384 79.2002 409.28C79.0777 408.795 78.9552 408.31 78.7103 407.824C73.8112 390.72 70.3819 372.524 68.7897 353.357C68.7897 352.872 68.7897 352.266 68.6672 351.78C67.0751 332.614 67.1975 312.598 69.2796 291.976C69.2796 291.369 69.2796 290.763 69.4021 290.156C69.892 285.91 70.3819 281.665 70.9943 277.419C73.3213 260.8 76.7506 244.545 81.1598 228.653C81.2823 228.047 81.5272 227.561 81.6497 226.955C87.2836 207.182 94.5096 188.137 103.083 170.062C103.328 169.576 103.573 169.091 103.818 168.485C112.514 150.531 122.434 133.548 133.579 117.899C133.947 117.414 134.192 117.05 134.559 116.565C145.705 100.916 157.952 86.6021 171.057 73.8648C171.424 73.5009 171.792 73.137 172.159 72.7731C185.264 60.1571 199.349 48.9968 213.924 39.6561C214.291 39.4135 214.781 39.1709 215.148 38.8069C229.845 29.5876 245.155 22.1878 260.709 16.8503C261.199 16.729 261.567 16.4864 262.057 16.3651C277.366 11.2701 292.92 8.11614 308.72 7.14568C309.332 7.38829 310.067 7.5096 310.802 7.75222C298.309 9.57183 285.817 13.6963 273.569 19.6404C273.202 19.7617 272.834 20.0043 272.467 20.1256C259.852 26.3123 247.604 34.6825 235.724 44.6297C235.357 44.8723 234.989 45.2362 234.744 45.4789C222.864 55.5474 211.474 67.4355 200.696 80.9007C200.329 81.2646 200.084 81.6285 199.716 81.9924C188.939 95.4576 178.895 110.378 169.587 126.512C169.342 126.998 169.097 127.483 168.852 127.847C159.667 143.981 151.216 161.449 143.867 179.766C143.622 180.252 143.5 180.858 143.255 181.343C135.906 199.782 129.66 219.07 124.639 239.086C124.516 239.692 124.394 240.177 124.149 240.784C120.23 256.675 116.923 273.052 114.718 289.671C114.106 293.917 113.616 298.162 113.126 302.408C113.126 303.015 113.003 303.621 112.881 304.107C110.676 324.729 109.942 344.623 110.676 363.547C110.676 364.032 110.676 364.639 110.676 365.124C111.411 383.927 113.616 401.88 116.923 418.621C116.923 419.106 117.168 419.591 117.168 420.076C120.597 436.696 125.374 452.102 131.252 466.052C131.375 466.416 131.62 466.901 131.742 467.265C137.621 481.094 144.725 493.468 152.808 504.143C153.053 504.507 153.298 504.749 153.543 505.113C161.626 515.667 170.812 524.522 180.855 531.437C181.1 531.679 181.467 531.801 181.712 532.043C191.021 538.23 200.941 542.84 211.597 545.63H211.964C201.309 542.961 191.388 538.473 182.202 532.165C181.957 531.922 181.59 531.801 181.345 531.558C171.424 524.644 162.361 515.788 154.278 505.234C154.033 504.992 153.788 504.628 153.543 504.385C145.582 493.71 138.601 481.337 132.722 467.508C132.6 467.144 132.355 466.659 132.232 466.295C126.476 452.344 121.699 436.938 118.392 420.319C118.392 419.834 118.147 419.349 118.147 418.863C114.841 402.244 112.636 384.291 111.901 365.488C111.901 365.003 111.901 364.396 111.901 363.911C111.289 344.987 111.901 325.093 114.228 304.592C114.228 303.985 114.351 303.379 114.473 302.893C114.963 298.648 115.453 294.402 116.065 290.156C118.392 273.537 121.577 257.16 125.496 241.269C125.619 240.663 125.741 240.177 125.986 239.571C131.007 219.555 137.254 200.267 144.602 181.829C144.847 181.343 144.97 180.737 145.215 180.252C152.563 161.934 160.892 144.466 170.077 128.211C170.322 127.725 170.567 127.24 170.812 126.876C179.998 110.742 190.041 95.8215 200.696 82.3563C200.941 81.9924 201.309 81.6285 201.554 81.2646C212.209 67.9207 223.599 56.0326 235.357 45.8428C235.724 45.6002 235.969 45.2362 236.337 44.9936C248.094 34.9251 260.342 26.6762 272.834 20.3682C273.202 20.1256 273.569 20.0043 273.937 19.883C286.062 13.9389 298.432 9.81444 310.802 7.87352C311.537 8.11614 312.394 8.23745 313.251 8.48006C304.678 11.2701 295.982 16.1224 287.409 22.9157C287.164 23.1583 286.919 23.2796 286.674 23.5222C277.856 30.558 269.16 39.6561 260.587 50.4525C260.342 50.8164 260.097 51.059 259.852 51.4229C251.279 62.3406 243.073 74.9566 235.112 88.9069C234.867 89.2709 234.622 89.7561 234.377 90.12C226.416 104.192 218.945 119.719 211.841 136.338C211.597 136.823 211.474 137.309 211.229 137.794C204.248 154.534 197.757 172.367 191.878 191.048C191.755 191.533 191.511 192.14 191.388 192.625C185.632 211.306 180.488 230.958 176.079 251.095C175.956 251.702 175.834 252.308 175.711 252.793C172.282 268.806 169.342 285.304 167.015 301.923C166.403 306.169 165.913 310.415 165.301 314.66C165.301 315.267 165.178 315.873 165.056 316.359C162.606 336.86 161.259 356.633 160.892 375.314C160.892 375.799 160.892 376.406 160.892 376.891C160.524 395.451 161.259 413.041 162.851 429.296C162.851 429.781 162.851 430.266 162.974 430.63C164.566 446.764 167.138 461.685 170.567 475.029C170.567 475.393 170.812 475.757 170.812 476.121C174.241 489.343 178.528 501.11 183.55 511.178C183.672 511.421 183.795 511.785 184.039 512.028C189.061 521.854 194.94 529.981 201.431 536.168C201.554 536.289 201.798 536.532 201.921 536.653C208.535 542.597 215.761 546.6 223.599 548.42C223.722 548.42 223.967 548.42 224.089 548.42H224.457C224.457 548.42 224.089 548.42 223.844 548.42C216.128 546.722 208.902 542.718 202.411 536.774C202.288 536.653 202.043 536.41 201.798 536.289C195.43 530.224 189.673 522.096 184.652 512.27C184.529 512.028 184.407 511.664 184.284 511.421C179.385 501.474 175.221 489.707 171.792 476.484C171.792 476.121 171.547 475.757 171.547 475.393C168.24 462.049 165.791 447.128 164.198 430.994C164.198 430.509 164.198 430.024 164.076 429.66C162.606 413.405 161.994 395.815 162.361 377.255C162.361 376.77 162.361 376.163 162.361 375.678C162.729 356.997 164.198 337.345 166.525 316.723C166.525 316.116 166.648 315.509 166.77 315.024C167.26 310.778 167.873 306.533 168.363 302.287C170.69 285.668 173.629 269.17 176.936 253.157C176.936 252.551 177.181 252.066 177.303 251.459C181.59 231.322 186.734 211.67 192.49 192.989C192.613 192.504 192.858 191.897 192.98 191.412C198.737 172.73 205.228 154.898 212.209 138.158C212.454 137.673 212.576 137.187 212.821 136.702C219.802 120.083 227.273 104.556 235.112 90.3626C235.357 89.9987 235.602 89.5135 235.724 89.1496C243.563 75.0779 251.769 62.4619 260.219 51.5442C260.464 51.1803 260.709 50.9377 260.954 50.5738C269.405 39.7774 277.978 30.6793 286.797 23.5222C287.042 23.2796 287.287 23.1583 287.532 22.9157C295.982 16.1224 304.556 11.1488 313.007 8.35875C313.864 8.48006 314.844 8.72268 315.701 8.84398C311.414 12.3619 306.883 18.0634 302.351 25.7057C302.229 25.9483 302.106 26.191 301.984 26.3123C297.207 34.1973 292.431 44.0232 287.532 55.4261C287.409 55.79 287.287 56.0326 287.164 56.3965C282.265 67.9207 277.366 81.1433 272.59 95.8215C272.467 96.1854 272.345 96.6706 272.222 97.0346C267.446 111.713 262.669 127.725 258.137 144.83C258.137 145.315 257.892 145.8 257.77 146.285C253.238 163.39 248.829 181.707 244.665 200.752C244.665 201.238 244.42 201.844 244.298 202.33C240.133 221.375 236.214 241.148 232.785 261.528C232.785 262.134 232.54 262.741 232.54 263.226C229.723 279.36 227.151 295.858 224.824 312.477C224.212 316.722 223.599 320.968 223.109 325.214C223.109 325.821 222.987 326.427 222.864 326.912C220.17 347.413 218.088 366.944 216.618 385.504C216.618 385.989 216.618 386.596 216.496 387.081C215.026 405.52 214.046 422.745 213.556 438.637C213.556 439.122 213.556 439.607 213.556 439.971C213.189 455.741 213.311 470.177 213.924 483.035C213.924 483.399 213.924 483.763 213.924 484.127C214.536 496.864 215.761 508.024 217.475 517.365C217.475 517.608 217.475 517.85 217.598 518.214C219.313 527.434 221.517 534.833 224.212 540.292C224.212 540.414 224.334 540.656 224.457 540.777C227.151 545.994 230.335 549.269 234.01 550.239C234.01 550.239 234.255 550.239 234.377 550.239C234.5 550.239 234.744 550.239 234.867 550.239H235.112C235.112 550.239 234.867 550.239 234.622 550.239H234.377C230.825 549.269 227.763 546.115 225.191 540.899C225.191 540.777 225.069 540.535 224.946 540.414C222.374 535.076 220.292 527.676 218.7 518.336C218.7 518.093 218.7 517.85 218.578 517.486C216.985 508.146 215.883 496.985 215.271 484.248C215.271 483.884 215.271 483.52 215.271 483.156C214.658 470.298 214.658 455.862 215.148 440.092C215.148 439.607 215.148 439.243 215.148 438.758C215.638 422.867 216.618 405.641 218.21 387.202C218.21 386.717 218.21 386.11 218.333 385.625C219.925 367.186 222.007 347.656 224.701 327.034C224.701 326.427 224.824 325.821 224.946 325.335C225.436 321.09 226.049 316.965 226.661 312.598C228.988 295.979 231.56 279.481 234.377 263.347C234.377 262.741 234.622 262.134 234.744 261.649C238.296 241.391 242.093 221.496 246.135 202.451C246.135 201.844 246.38 201.359 246.502 200.752C250.544 181.707 254.953 163.511 259.485 146.285C259.607 145.8 259.73 145.315 259.852 144.83C264.384 127.725 269.038 111.713 273.692 96.9132C273.814 96.428 273.937 96.0641 274.059 95.7002C278.836 81.1433 283.612 67.7994 288.266 56.2752C288.389 55.9113 288.511 55.6687 288.634 55.3048C293.41 43.7806 298.064 33.9546 302.719 26.0697C302.841 25.827 302.964 25.5844 303.086 25.3418C307.618 17.8207 311.904 12.1193 316.191 8.48006C317.171 8.60137 318.151 8.84398 319.008 8.96529C319.13 13.2111 319.008 19.519 318.64 27.768C318.64 28.0106 318.64 28.2532 318.64 28.4958C318.151 36.9873 317.416 47.4198 316.436 59.5505C316.436 59.9145 316.436 60.2784 316.436 60.6423C315.456 72.7731 314.109 86.6021 312.517 101.644C312.517 102.129 312.517 102.493 312.394 102.979C310.802 118.142 309.087 134.64 307.005 152.108C307.005 152.593 307.005 153.079 306.883 153.564C304.923 171.153 302.719 189.714 300.269 209.001C300.269 209.608 300.147 210.093 300.024 210.7C297.575 229.988 295.003 250.003 292.308 270.504C292.308 271.111 292.186 271.717 292.063 272.324C289.859 288.579 287.654 305.077 285.327 321.817C284.715 326.063 284.102 330.309 283.49 334.555C283.49 335.161 283.367 335.768 283.245 336.253C280.305 356.754 277.489 376.163 274.672 394.481C274.672 394.966 274.549 395.451 274.427 396.058C271.732 414.254 269.038 431.237 266.466 446.885C266.466 447.371 266.343 447.735 266.221 448.22C263.649 463.747 261.322 477.819 259.117 490.192C259.117 490.556 259.117 490.92 258.872 491.284C256.668 503.657 254.586 514.332 252.748 523.067C252.748 523.309 252.748 523.552 252.626 523.794C250.789 532.529 249.197 539.322 247.849 544.174C247.849 544.295 247.849 544.417 247.849 544.538C246.502 549.148 245.4 551.816 244.543 552.059H244.787C244.787 552.059 244.787 552.059 244.91 552.059C245.89 551.816 247.115 549.269 248.584 544.538C248.584 544.417 248.584 544.295 248.584 544.174C250.054 539.443 251.769 532.529 253.728 523.916C253.728 523.673 253.728 523.43 253.851 523.188C255.81 514.332 257.892 503.657 260.219 491.405C260.219 491.041 260.342 490.677 260.464 490.314C262.791 477.94 265.241 463.869 267.813 448.341C267.813 447.856 267.935 447.492 268.058 447.007C270.63 431.479 273.324 414.496 276.141 396.3C276.141 395.815 276.264 395.33 276.386 394.723C279.203 376.406 282.02 356.997 284.96 336.496C284.96 335.889 285.082 335.283 285.205 334.797C285.817 330.673 286.429 326.427 287.042 322.06C289.369 305.441 291.573 288.822 293.778 272.567C293.778 271.96 293.9 271.353 294.023 270.747C296.717 250.367 299.289 230.352 301.616 210.942C301.616 210.336 301.739 209.851 301.861 209.244C304.188 189.956 306.393 171.396 308.23 153.806C308.23 153.321 308.23 152.836 308.352 152.351C310.312 134.882 312.027 118.385 313.496 103.221C313.496 102.736 313.496 102.372 313.496 101.887C314.966 86.7234 316.191 73.0157 317.048 60.8849C317.048 60.521 317.048 60.1571 317.048 59.7931C317.906 47.6624 318.64 37.2299 318.885 28.7384C318.885 28.4958 318.885 28.2532 318.885 28.0106C319.13 19.7617 319.253 13.4537 318.885 9.20791C319.865 9.32921 320.845 9.45052 321.825 9.57183C326.601 14.3028 330.888 21.2174 334.685 29.8302C334.685 30.0728 334.93 30.3154 335.052 30.558C338.971 39.5348 342.278 50.4525 345.218 62.9471C345.218 63.3111 345.34 63.675 345.463 64.0389C348.28 76.6549 350.607 90.8479 352.321 106.254C352.321 106.739 352.321 107.103 352.444 107.588C354.158 123.116 355.383 139.977 355.996 157.688C355.996 158.174 355.996 158.659 355.996 159.265C356.608 177.098 356.608 195.9 355.996 215.431C355.996 216.037 355.996 216.522 355.996 217.129C355.383 236.66 354.158 256.797 352.321 277.298C352.321 277.904 352.321 278.511 352.199 279.117C350.729 295.494 348.769 311.992 346.442 328.732C345.83 332.978 345.218 337.223 344.605 341.469C344.605 342.076 344.483 342.682 344.36 343.168C341.176 363.547 337.624 382.956 333.582 401.153C333.582 401.638 333.338 402.123 333.215 402.729C329.173 420.804 324.764 437.545 320.11 452.951C319.988 453.436 319.865 453.8 319.743 454.285C315.089 469.57 310.067 483.278 304.923 495.408C304.801 495.772 304.678 496.136 304.433 496.379C299.289 508.388 294.023 518.699 288.634 527.07C288.511 527.312 288.266 527.555 288.144 527.798C282.755 536.168 277.244 542.476 271.855 546.843C271.732 546.964 271.61 547.085 271.365 547.207C265.976 551.453 260.464 553.515 255.198 553.272C255.075 553.272 254.83 553.272 254.708 553.272C254.586 553.272 254.341 553.272 254.218 553.272H254.463C254.463 553.272 254.831 553.272 254.953 553.272C255.075 553.272 255.32 553.272 255.443 553.272C260.832 553.515 266.343 551.453 271.977 547.207C272.1 547.207 272.345 546.964 272.467 546.843C277.978 542.597 283.612 536.168 289.124 527.798C289.246 527.555 289.491 527.312 289.614 527.07C295.125 518.699 300.514 508.388 305.78 496.379C305.903 496.015 306.025 495.651 306.27 495.408C311.537 483.278 316.436 469.57 321.212 454.285C321.335 453.8 321.457 453.436 321.58 452.951C326.356 437.666 330.766 420.804 334.807 402.729C334.807 402.244 335.052 401.759 335.175 401.153C339.216 383.078 342.891 363.668 345.953 343.168C345.953 342.561 346.075 341.954 346.197 341.469C346.81 337.345 347.422 333.099 348.035 328.732C350.362 312.113 352.199 295.494 353.791 279.117C353.791 278.511 353.791 277.904 353.913 277.298C355.751 256.797 356.975 236.538 357.588 217.129C357.588 216.522 357.588 216.037 357.588 215.431C358.078 195.9 358.078 177.098 357.465 159.265C357.465 158.78 357.465 158.295 357.465 157.688C356.73 139.856 355.506 123.116 353.668 107.467C353.668 106.982 353.669 106.618 353.546 106.133C351.709 90.6053 349.259 76.4123 346.32 63.7963C346.32 63.4324 346.197 63.0684 346.075 62.7045C343.136 50.2099 339.584 39.2922 335.542 30.3154C335.542 30.0728 335.297 29.8302 335.175 29.5876C331.255 20.8534 326.846 14.0602 321.947 9.20791C322.927 9.20791 323.907 9.32921 324.764 9.45052C333.95 14.5454 342.401 21.7026 350.362 30.6793C350.607 30.922 350.852 31.1646 351.097 31.5285C359.18 40.8692 366.528 52.0295 373.265 64.8881C373.387 65.252 373.632 65.6159 373.877 65.9798C380.491 78.8384 386.247 93.274 391.269 109.044C391.391 109.529 391.514 109.893 391.636 110.378C396.535 126.148 400.577 143.253 403.761 161.206C403.761 161.691 403.884 162.298 404.006 162.783C407.068 180.858 409.273 199.782 410.375 219.434C410.375 220.04 410.375 220.526 410.375 221.132C411.477 240.784 411.477 261.042 410.375 281.665C410.375 282.271 410.375 282.878 410.375 283.484C409.517 299.861 407.925 316.48 405.598 333.099C404.986 337.345 404.374 341.591 403.639 345.836C403.639 346.443 403.394 347.049 403.394 347.535C399.964 367.914 395.678 387.323 390.411 405.277C390.289 405.762 390.166 406.247 389.921 406.854C384.655 424.807 378.654 441.427 371.917 456.711C371.672 457.197 371.55 457.561 371.305 458.046C364.569 473.088 357.098 486.674 349.137 498.562C348.892 498.926 348.647 499.169 348.402 499.533C340.441 511.3 331.99 521.368 323.172 529.496C322.927 529.738 322.682 529.981 322.437 530.224C313.619 538.23 304.433 544.417 295.003 548.42C294.758 548.42 294.513 548.662 294.145 548.784C284.837 552.666 275.406 554.364 265.853 553.879H266.221C275.896 554.364 285.449 552.666 294.758 548.784C295.003 548.784 295.248 548.541 295.615 548.42C305.168 544.417 314.476 538.351 323.417 530.224C323.662 529.981 323.907 529.738 324.152 529.496C333.093 521.368 341.666 511.3 349.627 499.533C349.872 499.169 350.117 498.805 350.362 498.562C358.323 486.674 365.916 473.088 372.652 458.046C372.897 457.561 373.02 457.197 373.265 456.711C380.001 441.548 386.125 424.929 391.391 406.975C391.514 406.49 391.636 406.005 391.881 405.398C397.147 387.323 401.434 368.036 404.863 347.656C404.863 347.049 405.108 346.443 405.108 345.958C405.843 341.833 406.456 337.587 407.068 333.22C409.395 316.601 410.987 299.982 411.845 283.606C411.845 282.999 411.845 282.392 411.845 281.786C412.824 261.164 412.824 240.905 411.722 221.253C411.722 220.647 411.722 220.162 411.722 219.555C410.497 199.903 408.293 180.979 405.231 162.905C405.231 162.419 405.108 161.934 404.986 161.328C401.802 143.374 397.637 126.27 392.616 110.5C392.493 110.014 392.371 109.651 392.126 109.165C387.104 93.3953 381.103 78.9597 374.489 66.1011C374.244 65.7372 374.122 65.3733 373.877 65.0094C367.141 52.1508 359.67 40.9905 351.464 31.6498C351.219 31.4072 350.974 31.1646 350.729 30.8006C342.768 21.8239 334.072 14.6667 324.764 9.57183C325.009 9.57183 325.254 9.57183 325.499 9.57183C326.111 9.57183 326.724 9.57183 327.336 9.57183C340.441 14.7881 352.934 22.0665 364.569 31.1646C364.936 31.4072 365.304 31.6498 365.549 32.0137C377.429 41.4757 388.452 52.7573 398.495 65.6159C398.74 65.9798 399.107 66.3438 399.352 66.7077C409.395 79.6876 418.336 94.2445 426.174 110.014C426.419 110.5 426.664 110.864 426.787 111.349C434.625 127.24 441.239 144.344 446.75 162.419C446.873 162.905 447.118 163.39 447.24 163.996C452.629 182.071 456.671 201.116 459.365 220.768C459.365 221.375 459.488 221.86 459.61 222.467C462.182 242.118 463.407 262.498 463.162 283.12C463.162 283.727 463.162 284.333 463.162 284.94C462.794 301.316 461.57 317.936 459.243 334.555C458.63 338.8 458.018 343.046 457.283 347.171C457.283 347.777 457.038 348.384 457.038 348.869C453.486 369.249 448.342 388.537 442.096 406.611C441.974 407.097 441.729 407.582 441.606 408.188C435.237 426.142 427.644 442.761 419.071 457.803C418.826 458.288 418.581 458.652 418.336 459.138C409.64 474.18 399.964 487.645 389.554 499.533C389.309 499.897 388.942 500.261 388.697 500.503C378.164 512.149 366.773 522.217 354.893 530.224C354.526 530.466 354.158 530.709 353.913 530.952C341.911 538.958 329.296 544.902 316.313 548.784C315.946 548.784 315.579 549.026 315.211 549.148C305.413 551.938 295.492 553.636 285.327 554H285.939C295.982 553.636 305.903 551.938 315.701 549.148C316.068 549.148 316.436 548.905 316.803 548.784C329.908 544.902 342.523 538.837 354.648 530.952C355.016 530.709 355.383 530.466 355.628 530.224C367.631 522.217 379.021 512.149 389.676 500.503C389.921 500.139 390.289 499.897 390.534 499.533C401.067 487.766 410.865 474.18 419.561 459.138C419.805 458.652 420.05 458.288 420.295 457.803C428.869 442.64 436.585 426.021 442.953 408.188C443.076 407.703 443.321 407.218 443.443 406.611C449.69 388.658 454.834 369.249 458.385 348.869C458.385 348.262 458.63 347.656 458.63 347.171C459.365 343.046 459.978 338.8 460.59 334.555C462.917 317.936 464.142 301.316 464.509 284.94C464.509 284.333 464.509 283.727 464.509 283.12C464.754 262.498 463.529 242.24 460.957 222.467C460.957 221.86 460.835 221.375 460.712 220.768C458.018 201.116 453.854 182.071 448.465 163.996C448.342 163.511 448.097 163.026 447.975 162.419C442.463 144.344 435.727 127.24 427.889 111.349C427.644 110.864 427.399 110.5 427.154 110.014C419.193 94.2445 410.13 79.6876 400.087 66.7077C399.842 66.3438 399.474 65.9798 399.23 65.6159C389.064 52.7573 377.919 41.3544 366.039 32.0137C365.671 31.7711 365.304 31.5285 365.059 31.1646C353.301 22.0665 340.809 14.7881 327.581 9.57183C328.316 9.57183 329.051 9.57183 329.541 9.57183C345.83 14.6667 361.384 21.9452 375.959 30.922C376.449 31.1646 376.816 31.4072 377.184 31.7711C392.126 41.1118 405.966 52.3934 418.826 65.1307C419.193 65.4946 419.56 65.8585 419.928 66.2224C432.665 79.081 444.178 93.5166 454.344 109.287C454.589 109.772 454.956 110.136 455.201 110.621C465.366 126.391 474.062 143.495 481.288 161.449C481.533 161.934 481.656 162.419 481.901 163.026C489.004 181.101 494.638 200.025 498.68 219.676C498.68 220.283 498.925 220.768 499.047 221.375C502.844 241.027 505.049 261.285 505.294 281.907C505.294 282.514 505.294 283.12 505.294 283.727C505.416 300.103 504.436 316.722 502.109 333.342C501.497 337.587 500.884 341.833 500.15 345.958C500.15 346.564 499.905 347.171 499.782 347.656C495.985 368.036 490.474 387.445 483.37 405.398C483.125 405.884 483.003 406.369 482.758 406.975C475.532 424.929 466.714 441.548 456.671 456.711C456.426 457.197 456.058 457.561 455.813 458.046C445.648 473.088 434.258 486.674 421.643 498.562C421.275 498.926 420.908 499.29 420.54 499.533C407.925 511.3 394.33 521.368 379.878 529.496C379.511 529.738 379.021 529.981 378.654 530.224C364.201 538.23 348.892 544.417 333.093 548.42C332.603 548.42 332.235 548.662 331.745 548.784C324.519 550.603 317.171 551.816 309.7 552.787H310.435C317.783 551.816 325.009 550.482 332.113 548.784C332.603 548.784 332.97 548.541 333.46 548.42C349.382 544.417 364.691 538.23 379.266 530.224C379.633 529.981 380.123 529.738 380.491 529.496C394.943 521.368 408.66 511.3 421.275 499.533C421.643 499.169 422.01 498.805 422.377 498.562C434.992 486.674 446.383 473.088 456.671 458.046C456.916 457.561 457.283 457.197 457.528 456.711C467.693 441.548 476.389 424.929 483.615 406.854C483.86 406.369 483.983 405.884 484.228 405.277C491.331 387.202 496.965 367.914 500.762 347.535C500.762 346.928 501.007 346.322 501.129 345.836C501.864 341.712 502.599 337.466 503.089 333.22C505.416 316.601 506.518 299.982 506.273 283.606C506.273 282.999 506.273 282.392 506.273 281.786C506.028 261.164 503.824 240.905 499.905 221.253C499.905 220.647 499.66 220.162 499.537 219.555C495.618 199.903 489.862 180.979 482.636 162.905C482.391 162.419 482.268 161.934 482.023 161.328C474.797 143.374 465.979 126.27 455.813 110.5C455.568 110.014 455.201 109.651 454.956 109.165C444.791 93.3953 433.155 78.9597 420.418 66.1011C420.05 65.7372 419.683 65.3733 419.316 65.0094C406.456 52.2721 392.493 40.9905 377.551 31.6498C377.061 31.4072 376.694 31.1646 376.327 30.8006C361.629 21.8239 346.075 14.6667 329.786 9.57183C330.398 9.57183 330.888 9.57183 331.255 9.32921C349.872 14.1815 367.508 20.9747 384.287 29.7089C384.777 29.9515 385.267 30.1941 385.757 30.4367C402.904 39.5348 418.826 50.4525 433.523 62.9471C433.89 63.3111 434.38 63.675 434.747 64.0389C449.445 76.6549 462.672 90.8479 474.552 106.375C474.92 106.86 475.165 107.224 475.532 107.71C487.29 123.237 497.578 140.099 506.151 157.931C506.396 158.416 506.641 158.901 506.886 159.387C515.337 177.219 522.073 196.143 526.972 215.552C527.094 216.159 527.217 216.644 527.339 217.25C532.116 236.781 534.933 256.918 535.545 277.54C535.545 278.147 535.545 278.753 535.545 279.36C536.035 295.736 535.178 312.234 532.851 328.975C532.238 333.22 531.626 337.466 530.769 341.712C530.769 342.318 530.524 342.925 530.401 343.41C526.482 363.79 520.603 383.199 512.765 401.395C512.52 401.88 512.275 402.366 512.152 402.972C504.314 421.047 494.638 437.787 483.493 453.072C483.125 453.557 482.881 453.921 482.513 454.407C471.245 469.57 458.508 483.399 444.546 495.408C444.178 495.772 443.688 496.136 443.321 496.379C429.236 508.388 414.049 518.578 397.76 527.07C397.27 527.312 396.78 527.555 396.413 527.798C382.205 534.955 367.386 540.777 351.954 545.023C367.508 540.777 382.573 535.076 396.78 527.798C397.27 527.555 397.76 527.312 398.127 527.07C414.417 518.699 429.726 508.388 443.811 496.379C444.178 496.015 444.668 495.651 445.035 495.408C458.998 483.278 471.858 469.57 483.003 454.285C483.37 453.8 483.615 453.436 483.983 452.951C495.128 437.666 504.804 420.804 512.642 402.851C512.887 402.366 513.132 401.88 513.255 401.274C520.971 383.199 526.972 363.79 530.891 343.289C530.891 342.682 531.136 342.076 531.258 341.591C531.993 337.466 532.728 333.22 533.341 328.853C535.668 312.234 536.525 295.615 536.035 279.238C536.035 278.632 536.035 278.025 536.035 277.419C535.3 256.918 532.483 236.66 527.707 217.129C527.584 216.522 527.462 216.037 527.339 215.431C522.44 195.9 515.704 177.098 507.253 159.265C507.008 158.78 506.763 158.295 506.518 157.688C497.945 139.856 487.657 122.994 475.899 107.467C475.532 106.982 475.287 106.618 474.92 106.133C463.039 90.6053 449.69 76.4123 434.992 63.7963C434.625 63.4324 434.135 63.0684 433.768 62.7045C418.948 50.2099 402.904 39.2922 385.757 30.1941C385.267 29.9515 384.777 29.7089 384.287 29.4663C367.508 20.7321 349.749 13.9389 331.133 9.0866C331.5 9.0866 331.745 8.84398 331.99 8.72268C351.954 13.0897 370.938 19.3977 388.942 27.6467C389.431 27.8893 390.044 28.1319 390.534 28.3745C408.905 36.9873 426.174 47.4198 441.974 59.5505C442.463 59.9145 442.831 60.2784 443.321 60.6423C459.12 72.8944 473.572 86.6021 486.432 101.766C486.8 102.251 487.167 102.615 487.535 103.1C500.272 118.263 511.417 134.882 520.726 152.351C520.97 152.836 521.215 153.321 521.46 153.806C530.646 171.396 538.117 189.956 543.506 209.244L543.996 210.942C549.262 230.23 552.447 250.367 553.427 270.747C553.427 271.353 553.427 271.96 553.427 272.567C554.039 288.822 553.427 305.441 550.977 322.06C550.365 326.306 549.63 330.552 548.895 334.797C548.895 335.404 548.65 336.01 548.528 336.496C544.608 356.997 538.362 376.406 530.279 394.723C530.034 395.208 529.789 395.815 529.544 396.3C521.338 414.496 511.172 431.479 499.415 447.007C499.047 447.492 498.802 447.856 498.435 448.341C486.555 463.869 473.082 477.819 458.263 490.192C457.895 490.556 457.406 490.92 457.038 491.284C453.731 493.953 450.424 496.622 446.995 499.169C450.547 496.622 453.854 493.953 457.283 491.163C457.773 490.799 458.14 490.435 458.508 490.071C473.327 477.698 486.922 463.626 498.802 448.22C499.17 447.735 499.537 447.371 499.782 446.885C511.54 431.358 521.705 414.375 529.911 396.179C530.156 395.694 530.401 395.208 530.646 394.602C538.729 376.406 544.976 356.875 548.895 336.374C548.895 335.768 549.14 335.161 549.262 334.676C549.997 330.43 550.732 326.306 551.344 321.939C553.672 305.32 554.406 288.822 553.794 272.445C553.794 271.839 553.794 271.232 553.794 270.626C552.814 250.246 549.63 230.109 544.363 210.821L545.098 211.064Z" fill="#5A9CFF" fill-opacity="0.3"/>
<path d="M351.773 544.424C351.773 544.424 352.86 544.162 353.463 543.907C372.66 538.202 391.094 530.427 408.531 520.954C409.012 520.701 409.493 520.448 409.972 520.073C427.285 510.479 443.719 499.063 458.67 485.955C459.149 485.58 459.507 485.207 459.986 484.831C474.936 471.724 488.405 457.049 500.396 441.051C500.752 440.555 501.109 440.181 501.465 439.686C513.333 423.567 523.481 406.129 531.669 387.621C531.904 387.127 532.138 386.633 532.371 386.017C540.323 367.88 546.319 348.795 550.358 328.762C550.481 328.883 550.604 329.003 550.725 329.001C547.42 349.389 541.916 368.833 534.576 387.328C534.342 387.822 534.109 388.438 533.875 388.932C526.177 407.799 516.642 425.595 505.385 441.949C505.029 442.444 504.794 442.938 504.437 443.312C493.058 459.667 479.957 474.582 465.496 487.926C465.017 488.301 464.659 488.674 464.301 489.048C449.717 502.271 433.893 513.923 416.827 523.758C416.346 524.01 415.865 524.263 415.386 524.639C398.317 534.351 380.127 542.244 361.174 548.067C360.691 548.198 360.089 548.453 359.484 548.585C353.448 550.399 347.286 551.97 341.001 553.421L346.079 552.357C451.457 526.986 535.174 438.52 551.492 323.967C551.492 323.967 550.742 322.631 550.819 319.935C550.876 316.015 551.762 310.855 552.573 308.515C552.925 307.774 553.161 307.403 553.402 307.276C553.388 306.419 553.616 305.558 553.602 304.701C565.49 156.78 460.193 24.5018 313.823 6.44866C301.91 5.05184 290.129 4.26532 278.363 4.45848L276.423 4.49035C283.7 4.37087 290.984 4.61876 298.392 5.10959C298.999 5.09963 299.605 5.08967 300.214 5.20218C304.465 5.49986 308.718 5.92 312.973 6.4626C329.629 8.51651 345.823 12.0479 361.311 16.9383C361.922 17.1733 362.409 17.2877 363.019 17.5227C382.413 23.8189 400.869 32.0903 418.02 42.2206C418.51 42.4576 419.001 42.817 419.49 43.0539C436.644 53.3066 452.372 65.4201 466.79 79.0251C467.16 79.3865 467.651 79.7459 468.023 80.2297C482.322 93.9591 495.067 109.061 506.256 125.537C506.628 126.021 506.879 126.506 507.251 126.99C518.198 143.469 527.588 161.199 534.931 179.82C535.181 180.306 535.313 180.916 535.563 181.402C542.784 200.025 548.081 219.659 551.202 239.819C551.212 240.431 551.342 240.919 551.473 241.529C554.344 261.204 555.284 281.522 553.803 302.125C553.681 302.127 553.441 302.253 553.323 302.5C553.964 282.401 552.427 262.705 548.835 243.41C548.825 242.798 548.574 242.312 548.564 241.7C544.723 222.042 538.707 202.909 530.885 184.664C530.634 184.178 530.384 183.692 530.252 183.082C522.312 164.961 512.444 147.729 500.897 131.627C500.525 131.143 500.274 130.657 499.904 130.296C488.237 114.318 475.012 99.4688 460.234 86.1148C459.864 85.7534 459.373 85.3939 459.003 85.0325C444.225 71.6785 428.017 59.9404 410.623 49.8141C410.134 49.5771 409.643 49.2177 409.153 48.9808C391.761 38.977 373.065 30.8319 353.552 24.6602C352.943 24.5477 352.454 24.3108 351.846 24.1982C336.238 19.4323 320.044 15.9009 303.389 13.847C299.134 13.3044 294.88 12.8843 290.629 12.5866C290.023 12.5965 289.416 12.6065 288.808 12.494C268.037 10.9976 247.67 11.9445 228.065 14.9612C227.459 14.9711 226.975 15.1016 226.371 15.234C206.768 18.3731 187.929 23.7046 169.971 30.9815C169.49 31.2344 169.007 31.3648 168.404 31.6197C150.57 39.017 133.736 48.2354 118.143 59.1482C117.662 59.4011 117.304 59.7744 116.823 60.0273C101.353 71.0606 87.0034 83.7904 74.3758 97.9619C74.0179 98.3352 73.6621 98.8311 73.3043 99.2044C71.6364 101.069 69.9704 103.056 68.3045 105.044C69.8512 103.181 71.3978 101.318 73.0657 99.4533C73.4236 99.08 73.7814 98.7066 74.1372 98.2108C86.7649 84.0393 100.993 71.3115 116.584 60.2762C117.064 59.9009 117.423 59.65 117.903 59.2746C133.495 48.3618 150.329 39.1435 168.164 31.7461C168.645 31.4932 169.128 31.3628 169.731 31.1079C187.567 23.833 206.529 18.622 226.132 15.4829C226.739 15.4729 227.222 15.3425 227.826 15.2101C247.431 12.1934 267.798 11.2465 288.569 12.7429C289.176 12.7329 289.782 12.723 290.391 12.8355C294.642 13.1332 298.895 13.5533 303.15 14.0959C319.805 16.1498 335.999 19.6812 351.607 24.4472C352.216 24.5597 352.705 24.7966 353.313 24.9091C372.826 31.0808 391.523 39.2259 408.915 49.2297C409.404 49.4666 409.895 49.826 410.384 50.063C427.777 60.0668 443.986 71.9274 458.762 85.159C459.132 85.5204 459.623 85.8798 459.993 86.2412C474.771 99.5952 487.997 114.445 499.664 130.422C500.035 130.906 500.286 131.392 500.656 131.753C512.203 147.855 522.071 165.087 530.133 183.206C530.384 183.692 530.634 184.178 530.766 184.788C538.707 202.909 544.602 222.044 548.564 241.7C548.572 242.19 548.825 242.798 548.835 243.41C552.425 262.583 554.083 282.277 553.443 302.376C553.325 302.623 553.089 302.994 552.852 303.365C552.549 284.874 550.187 266.662 545.772 248.973C545.764 248.483 545.513 247.997 545.382 247.387C540.716 229.212 533.874 211.563 525.228 194.801C524.977 194.315 524.727 193.829 524.476 193.343C515.708 176.583 505.133 160.588 492.997 145.598C492.625 145.114 492.255 144.753 492.005 144.267C479.75 129.402 465.815 115.666 450.687 103.175C450.195 102.816 449.826 102.455 449.334 102.095C434.087 89.7288 417.407 78.7334 399.659 69.2254C399.169 68.9884 398.68 68.7515 398.189 68.3921C380.443 59.0065 361.512 51.3553 341.76 45.4325C341.152 45.32 340.663 45.0831 340.054 44.9706C324.329 40.4515 308.016 37.0446 291.361 34.9907C287.106 34.4481 282.852 34.0279 278.601 33.7302C277.995 33.7402 277.388 33.7502 276.78 33.6377C256.009 32.1413 235.879 32.7168 216.51 35.3621C215.904 35.3721 215.421 35.5025 214.816 35.6349C195.45 38.4027 176.965 43.1159 159.357 49.5296C158.873 49.66 158.392 49.9129 157.909 50.0434C140.424 56.5775 124.062 64.9307 109.059 74.8539C108.578 75.1068 108.218 75.3577 107.739 75.733C92.7383 85.7787 79.2174 97.2699 67.1761 110.207C66.8182 110.58 66.4604 110.954 66.1025 111.327C54.1845 124.384 43.8654 138.763 35.505 154.212C35.2705 154.705 35.034 155.077 34.7994 155.571C32.7998 159.401 30.9215 163.229 29.0451 167.179L28.4588 168.414C30.3291 164.096 32.446 160.019 34.5609 155.819C34.7954 155.326 35.0319 154.954 35.2665 154.46C43.6268 139.012 53.946 124.633 65.866 111.698C66.2238 111.325 66.5816 110.952 66.8182 110.58C78.7382 97.6453 92.3805 86.152 107.262 76.2308C107.743 75.9779 108.103 75.727 108.582 75.3517C123.584 65.4285 139.949 57.1978 157.311 50.5432C157.794 50.4127 158.275 50.1598 158.758 50.0294C176.245 43.6177 194.73 38.9045 214.096 36.1367C214.703 36.1267 215.186 35.9963 215.79 35.8639C235.159 33.2186 255.41 32.6411 276.06 34.1394C276.667 34.1295 277.273 34.1195 277.881 34.232C282.133 34.5297 286.386 34.9499 290.641 35.4925C307.296 37.5464 323.61 40.9533 339.335 45.4723C339.943 45.5848 340.432 45.8218 341.041 45.9343C360.79 51.7347 379.723 59.5083 397.467 68.7714C397.956 69.0084 398.446 69.2453 398.937 69.6047C416.683 78.9903 433.363 89.9857 448.611 102.352C449.102 102.711 449.472 103.073 449.963 103.432C465.21 115.799 479.147 129.656 491.4 144.399C491.772 144.883 492.142 145.245 492.393 145.731C504.648 160.596 515.223 176.591 523.991 193.351C524.242 193.837 524.492 194.323 524.743 194.809C533.389 211.571 540.231 229.22 544.895 247.272C544.903 247.762 545.153 248.248 545.285 248.858C549.7 266.547 552.181 284.635 552.484 303.127C552.486 303.249 552.488 303.371 552.25 303.62C552.135 303.99 552.019 304.359 551.785 304.853C550.555 289.072 547.264 273.324 541.918 258.1C541.789 257.612 541.661 257.247 541.411 256.761C535.815 241.052 528.164 225.866 518.705 211.322C518.456 210.958 518.206 210.473 517.836 210.111C508.255 195.569 496.987 181.668 484.034 168.651C483.664 168.29 483.294 167.929 482.924 167.567C469.971 154.551 455.458 142.54 439.75 131.651C439.259 131.291 438.891 131.052 438.399 130.693C422.57 119.806 405.424 110.043 387.33 101.643C386.841 101.406 386.352 101.169 385.742 100.934C367.528 92.659 348.365 85.6241 328.502 80.3155C327.894 80.203 327.405 79.9661 326.796 79.8536C310.956 75.7039 294.523 72.4214 277.87 70.4899C273.615 69.9473 269.362 69.5272 265.108 69.1071C264.502 69.117 263.896 69.127 263.287 69.0145C242.633 67.2712 222.618 67.4773 203.48 69.3839C202.995 69.3919 202.389 69.4018 201.906 69.5323C182.77 71.5613 164.632 75.2889 147.611 80.468C147.128 80.5985 146.645 80.7289 146.163 80.9818C129.144 86.2834 113.363 93.1571 98.9409 101.478C98.5811 101.729 98.0999 101.982 97.7401 102.233C83.4391 110.552 70.4945 120.197 59.2701 131.16C58.9102 131.411 58.6736 131.783 58.3138 132.033C47.2106 142.995 37.7044 155.155 30.1549 168.264C29.9183 168.635 29.6818 169.006 29.5665 169.376C24.7343 178.029 20.7571 187.037 17.5138 196.399C20.6379 187.161 24.617 178.276 29.3299 169.747C29.5665 169.376 29.803 169.004 29.9183 168.635C37.4678 155.527 46.9761 143.489 58.0792 132.527C58.4391 132.276 58.6757 131.905 59.0355 131.654C70.262 120.813 83.2066 111.169 97.5096 102.972C97.8694 102.721 98.3505 102.468 98.7104 102.217C113.135 94.0183 128.915 87.1446 145.935 81.843C146.418 81.7125 146.901 81.5821 147.382 81.3292C164.404 76.1501 182.541 72.4225 201.679 70.5159C202.164 70.508 202.771 70.498 203.254 70.3676C222.392 68.461 242.407 68.2549 263.061 69.9981C263.667 69.9882 264.273 69.9782 264.882 70.0907C269.135 70.5109 273.388 70.931 277.644 71.4736C294.299 73.5275 310.608 76.6895 326.57 80.8372C327.178 80.9497 327.667 81.1867 328.276 81.2992C348.139 86.6077 367.3 93.5202 385.513 101.796C386.002 102.033 386.491 102.27 387.102 102.504C405.196 110.904 422.339 120.545 438.169 131.432C438.66 131.791 439.028 132.03 439.519 132.389C455.349 143.276 469.862 155.287 482.813 168.181C483.183 168.543 483.553 168.904 483.923 169.266C496.752 182.162 508.142 196.061 517.721 210.481C517.969 210.844 518.22 211.33 518.59 211.691C528.049 226.235 535.699 241.421 541.291 256.886C541.421 257.374 541.669 257.737 541.799 258.225C547.144 273.449 550.553 288.949 551.783 304.73C551.55 305.347 551.441 306.083 551.211 306.822C549.186 294.361 544.857 281.938 538.713 269.79C538.585 269.424 538.337 269.061 538.21 268.696C531.817 256.184 523.246 244.075 513.106 232.36C512.857 231.997 512.487 231.635 512.24 231.394C501.978 219.681 489.905 208.487 476.265 197.932C475.895 197.571 475.527 197.332 475.157 196.97C461.517 186.415 446.433 176.618 430.148 167.576C429.659 167.339 429.17 167.102 428.802 166.863C412.52 157.944 394.915 149.781 376.479 142.734C375.99 142.497 375.382 142.384 374.892 142.147C356.336 135.103 336.948 129.174 316.852 124.482C316.244 124.369 315.757 124.255 315.146 124.02C299.193 120.362 282.764 117.324 266.111 115.393C261.856 114.85 257.603 114.43 253.349 114.01C252.743 114.02 252.134 113.907 251.647 113.793C230.992 111.927 211.088 111.519 192.178 112.564C191.693 112.572 191.087 112.582 190.602 112.59C171.813 113.634 153.899 116.133 137.215 119.714C136.73 119.722 136.248 119.975 135.763 119.983C119.203 123.684 103.877 128.713 90.0251 134.82C89.6632 134.949 89.1821 135.201 88.8202 135.33C75.0895 141.435 62.8344 148.741 52.2935 156.998C51.9336 157.249 51.6951 157.498 51.3352 157.749C40.9156 166.005 32.2121 175.334 25.4634 185.489C25.2248 185.738 25.1096 186.108 24.871 186.357C18.838 195.765 14.3917 205.76 11.7769 216.46L11.783 216.827C14.2765 206.129 18.6014 196.137 24.7577 186.849C24.9963 186.6 25.1116 186.23 25.3501 185.981C32.1009 175.949 40.8064 166.741 51.226 158.486C51.4646 158.237 51.8244 157.986 52.063 157.737C62.6059 149.602 74.863 142.419 88.5937 136.314C88.9556 136.185 89.4367 135.932 89.7986 135.804C103.653 129.819 118.978 124.79 135.541 121.211C136.026 121.203 136.507 120.95 136.992 120.942C153.555 117.363 171.47 114.864 190.258 113.821C190.743 113.813 191.349 113.803 191.835 113.795C210.746 112.872 230.648 113.158 251.184 115.148C251.791 115.138 252.399 115.25 252.886 115.365C257.139 115.785 261.393 116.205 265.648 116.748C282.303 118.802 298.73 121.717 314.683 125.375C315.292 125.487 315.779 125.602 316.389 125.837C336.485 130.529 355.873 136.458 374.429 143.502C374.919 143.739 375.527 143.852 376.016 144.089C394.452 151.136 412.055 159.176 428.458 168.094C428.948 168.331 429.437 168.568 429.805 168.807C446.087 177.726 461.171 187.523 474.809 197.956C475.177 198.195 475.547 198.556 475.915 198.795C489.432 209.23 501.505 220.424 511.887 232.013C512.135 232.376 512.503 232.615 512.752 232.978C523.012 244.569 531.461 256.68 537.973 269.067C538.222 269.43 538.349 269.796 538.476 270.161C544.619 282.187 548.946 294.488 551.089 306.824C550.859 307.563 550.752 308.422 550.523 309.283C547.593 300.757 542.598 292.142 535.665 283.681C535.419 283.44 535.293 283.198 535.047 282.957C527.867 274.255 518.627 265.71 507.692 257.315C507.324 257.076 507.077 256.835 506.709 256.596C495.652 248.203 482.903 240.205 468.824 232.475C468.456 232.236 467.967 231.999 467.599 231.76C453.399 224.031 437.751 216.816 421.017 209.986C420.528 209.749 420.041 209.634 419.552 209.398C402.699 202.692 384.763 196.495 365.987 190.923C365.5 190.809 364.89 190.574 364.403 190.459C345.629 185.01 325.896 180.19 305.689 176.112C305.08 175.999 304.472 175.887 303.985 175.772C287.918 172.606 271.374 169.938 254.719 167.884C250.464 167.341 246.211 166.921 241.955 166.379C241.349 166.389 240.74 166.276 240.253 166.162C219.715 164.049 199.922 163.026 181.237 162.966C180.752 162.974 180.146 162.984 179.661 162.992C161.097 162.929 143.522 163.952 127.295 165.811C126.81 165.819 126.325 165.827 125.963 165.956C109.857 167.812 94.9806 170.629 81.6949 174.277C81.331 174.283 80.9712 174.534 80.6073 174.54C67.4429 178.186 55.748 182.665 45.7632 187.851C45.5227 187.977 45.1608 188.106 44.9222 188.355C35.1801 193.537 27.1501 199.548 21.0708 206.14C20.9515 206.265 20.713 206.514 20.5937 206.638C14.759 213.349 10.875 220.639 9.18428 228.507C9.18629 228.629 9.19031 228.874 9.19232 228.996L9.19836 229.364C9.19836 229.364 9.19232 228.996 9.1883 228.752C10.7597 221.009 14.6437 213.718 20.4805 207.13C20.5997 207.006 20.8383 206.757 20.9555 206.51C26.9155 200.042 34.9475 194.153 44.6897 188.971C44.9303 188.845 45.2921 188.716 45.5327 188.59C55.3982 183.528 67.0951 179.171 80.2595 175.525C80.6234 175.519 80.9832 175.269 81.3471 175.263C94.6349 171.737 109.513 169.043 125.619 167.186C126.104 167.178 126.589 167.17 126.951 167.042C143.18 165.305 160.757 164.404 179.321 164.467C179.806 164.459 180.412 164.449 180.898 164.441C199.583 164.502 219.256 165.649 239.914 167.637C240.52 167.627 241.128 167.74 241.616 167.854C245.869 168.274 250.124 168.817 254.377 169.237C271.032 171.291 287.576 173.959 303.641 177.003C304.247 176.993 304.737 177.23 305.345 177.342C325.55 181.298 345.283 186.118 364.057 191.567C364.544 191.682 365.154 191.917 365.642 192.031C384.415 197.48 402.351 203.678 419.204 210.383C419.693 210.62 420.18 210.735 420.67 210.972C437.401 217.679 453.049 224.894 467.369 232.498C467.737 232.737 468.226 232.974 468.592 233.091C482.79 240.697 495.539 248.695 506.594 256.965C506.962 257.204 507.209 257.445 507.576 257.684C518.51 265.957 527.748 274.379 535.049 283.079C535.295 283.32 535.421 283.563 535.667 283.804C542.598 292.142 547.712 300.633 550.64 309.036C550.533 309.896 550.307 310.879 550.199 311.739C546.612 307.51 540.836 303.073 533.121 298.667C532.876 298.549 532.632 298.43 532.508 298.31C524.546 293.663 514.643 289.049 503.161 284.338C502.795 284.221 502.551 284.103 502.185 283.986C490.582 279.277 477.281 274.596 462.526 270.061C462.16 269.944 461.673 269.83 461.307 269.713C446.552 265.178 430.463 260.665 413.287 256.415C412.802 256.423 412.313 256.186 411.825 256.071C394.649 251.821 376.262 247.713 357.151 243.862C356.665 243.87 356.055 243.635 355.568 243.521C336.457 239.67 316.622 236.076 296.189 232.982C295.582 232.991 294.972 232.757 294.487 232.764C278.309 230.213 261.771 227.912 245.116 225.858C240.86 225.315 236.605 224.773 232.352 224.353C231.746 224.363 231.137 224.25 230.65 224.136C210.107 221.778 190.545 220.017 171.964 218.852C171.479 218.86 170.872 218.87 170.385 218.755C151.925 217.589 134.685 216.892 118.788 216.663C118.303 216.671 117.818 216.679 117.454 216.685C101.68 216.576 87.2482 216.936 74.4014 217.759C74.0375 217.765 73.6736 217.771 73.3098 217.777C60.5842 218.598 49.4456 220.006 40.1343 221.874C39.8917 221.878 39.6492 221.882 39.2873 222.01C30.0973 223.876 22.7347 226.202 17.3209 228.985C17.1996 228.987 16.959 229.114 16.8397 229.238C11.6684 232.018 8.44585 235.256 7.53584 238.946C7.53584 238.946 7.53986 239.19 7.54187 239.313C7.54388 239.435 7.5479 239.68 7.54991 239.803L7.55393 240.048C7.55393 240.048 7.54991 239.803 7.54589 239.558L7.54187 239.313C8.45389 235.746 11.5572 232.632 16.7305 229.975C16.8518 229.973 17.0923 229.847 17.2116 229.722C22.5062 227.063 29.8708 224.86 39.1841 223.114C39.4267 223.11 39.6692 223.106 40.0311 222.978C49.3444 221.233 60.4851 219.947 73.2106 219.126C73.5745 219.12 73.9384 219.114 74.3022 219.108C87.149 218.285 101.583 218.048 117.359 218.279C117.844 218.271 118.208 218.265 118.693 218.257C134.59 218.486 151.829 219.183 170.292 220.472C170.777 220.464 171.383 220.454 171.871 220.568C190.333 221.858 209.895 223.619 230.559 225.975C231.165 225.965 231.774 226.077 232.261 226.192C236.514 226.612 240.648 227.156 245.025 227.697C261.68 229.751 278.218 232.052 294.395 234.603C295.002 234.593 295.612 234.828 296.1 234.943C316.414 238.162 336.368 241.631 355.477 245.36C356.083 245.35 356.572 245.587 357.181 245.699C376.29 249.428 394.556 253.538 411.854 257.786C412.341 257.9 412.828 258.015 413.315 258.129C430.492 262.38 446.578 266.77 461.452 271.181C461.94 271.295 462.305 271.412 462.671 271.528C477.305 276.065 490.725 280.622 502.324 285.086C502.69 285.203 502.935 285.321 503.301 285.438C514.902 290.024 524.803 294.517 532.763 299.041C533.007 299.159 533.252 299.278 533.497 299.396C541.091 303.804 546.862 307.996 550.571 312.222C550.466 313.204 550.24 314.188 550.132 315.047C545.889 315.239 539.58 315.22 531.326 314.988C531.084 314.992 530.841 314.996 530.598 315C522.1 314.65 511.657 314.086 499.512 313.306C499.148 313.312 498.784 313.318 498.42 313.324C486.275 312.543 472.426 311.423 457.359 310.078C456.874 310.086 456.51 310.092 456.023 309.977C440.836 308.634 424.312 307.191 406.812 305.396C406.327 305.404 405.841 305.412 405.354 305.297C387.735 303.627 369.141 301.727 349.816 299.594C349.209 299.604 348.722 299.49 348.113 299.377C328.788 297.245 308.733 295.002 288.19 292.644C287.584 292.654 286.975 292.542 286.367 292.429C270.078 290.492 253.546 288.558 236.769 286.506C232.514 285.964 228.259 285.421 224.004 284.878C223.397 284.888 222.789 284.776 222.302 284.661C201.755 282.059 182.302 279.561 163.941 277.045C163.456 277.053 162.969 276.939 162.36 276.826C144.122 274.431 127.097 272.015 111.409 269.701C110.924 269.709 110.558 269.592 110.07 269.478C94.503 267.161 80.395 265.065 67.9871 263.064C67.6232 263.07 67.2594 263.076 66.8915 262.837C54.4836 260.836 43.7758 258.929 35.0126 257.236C34.7701 257.24 34.5275 257.244 34.2829 257.125C25.5198 255.432 18.7013 253.951 13.8276 252.684C13.7063 252.686 13.585 252.688 13.4637 252.69C8.8325 251.418 6.14601 250.36 5.88936 249.507L5.89338 249.752C5.89338 249.752 5.89338 249.752 5.89539 249.874C6.15405 250.85 8.72126 252.033 13.4757 253.425C13.597 253.423 13.7184 253.421 13.8396 253.419C18.5941 254.81 25.5359 256.411 34.1797 258.229C34.4223 258.225 34.6649 258.221 34.9095 258.34C43.7959 260.154 54.5037 262.06 66.7923 264.186C67.1562 264.18 67.5221 264.297 67.8879 264.413C80.2978 266.537 94.4078 268.755 109.975 271.072C110.46 271.064 110.826 271.18 111.314 271.295C126.881 273.611 143.906 276.027 162.146 278.544C162.631 278.537 163.118 278.651 163.727 278.764C182.088 281.279 201.541 283.777 222.087 286.38C222.694 286.37 223.302 286.482 223.789 286.597C227.923 287.141 232.179 287.684 236.555 288.225C253.21 290.279 269.863 292.21 286.152 294.147C286.759 294.138 287.367 294.25 287.976 294.363C308.397 296.722 328.452 298.965 347.897 300.973C348.503 300.963 348.991 301.078 349.599 301.19C368.923 303.2 387.516 305.1 405.134 306.648C405.619 306.64 406.104 306.632 406.591 306.747C424.089 308.419 440.613 309.863 455.799 311.084C456.284 311.076 456.648 311.07 457.133 311.062C472.318 312.282 486.044 313.282 498.188 313.94C498.551 313.934 498.915 313.928 499.279 313.922C511.422 314.58 521.865 315.143 530.36 315.249C530.602 315.245 530.845 315.241 531.088 315.237C539.339 315.347 545.649 315.365 549.888 314.928C549.783 315.91 549.677 316.892 549.572 317.873C544.92 322.727 538.077 327.127 529.528 331.064C529.285 331.068 529.046 331.317 528.806 331.444C519.895 335.51 509.033 338.995 496.588 342.139C496.224 342.145 495.862 342.274 495.5 342.402C482.932 345.426 468.78 347.986 453.404 349.953C452.919 349.961 452.555 349.967 452.071 350.097C436.574 352.067 419.735 353.568 402.037 354.471C401.551 354.479 401.066 354.487 400.46 354.497C382.64 355.402 363.84 355.711 344.302 355.419C343.695 355.429 343.21 355.437 342.604 355.447C323.066 355.155 302.911 354.261 282.383 352.761C281.777 352.771 281.17 352.781 280.562 352.668C264.163 351.467 247.636 349.779 230.859 347.727C226.604 347.184 222.349 346.642 218.093 346.099C217.487 346.109 216.879 345.997 216.391 345.882C195.962 343.033 176.497 339.8 158.237 336.058C157.752 336.066 157.263 335.829 156.654 335.716C138.516 331.972 121.705 327.838 106.225 323.437C105.738 323.323 105.372 323.206 104.885 323.092C89.5254 318.689 75.7371 313.894 63.5235 308.949C63.1577 308.833 62.7918 308.716 62.5452 308.475C50.4529 303.529 40.0567 298.433 31.5991 293.182C31.3546 293.064 31.1079 292.823 30.8633 292.704C22.4058 287.453 16.0082 282.046 11.5532 276.73C11.4299 276.609 11.3066 276.489 11.1813 276.246C6.84767 270.927 4.69525 265.45 4.85138 260.181C4.84937 260.058 4.84535 259.813 4.84334 259.691C4.84133 259.568 4.8373 259.324 4.83529 259.201L4.83932 259.446C4.83932 259.446 4.84535 259.813 4.84736 259.936C4.84937 260.058 4.85339 260.303 4.8554 260.426C4.70128 265.818 6.8537 271.295 11.1914 276.858C11.1934 276.981 11.44 277.222 11.5633 277.342C15.8989 282.783 22.4199 288.311 30.8794 293.684C31.124 293.802 31.3706 294.043 31.6152 294.162C40.0748 299.535 50.473 304.754 62.5673 309.823C62.9332 309.939 63.2991 310.055 63.5457 310.296C75.7612 315.363 89.5476 320.036 104.909 324.561C105.396 324.676 105.762 324.792 106.249 324.907C121.61 329.432 138.542 333.564 156.681 337.308C157.166 337.3 157.655 337.537 158.263 337.65C176.402 341.394 195.869 344.749 216.417 347.474C217.024 347.464 217.632 347.577 218.12 347.691C222.254 348.236 226.509 348.778 230.885 349.319C247.54 351.373 264.187 352.937 280.588 354.26C281.194 354.25 281.801 354.24 282.409 354.353C302.938 355.853 323.213 356.745 342.63 357.039C343.236 357.029 343.722 357.021 344.328 357.011C363.864 357.18 382.664 356.871 400.484 355.966C400.969 355.958 401.454 355.95 402.061 355.941C419.878 354.913 436.596 353.414 452.213 351.32C452.698 351.312 453.062 351.306 453.545 351.176C469.04 349.084 483.191 346.402 495.757 343.255C496.121 343.249 496.483 343.121 496.845 342.993C509.289 339.848 520.147 336.118 529.057 331.929C529.299 331.925 529.538 331.677 529.778 331.55C538.447 327.488 545.167 322.968 549.938 317.99C549.954 318.97 549.849 319.951 549.742 320.81C544.798 330.079 537.781 338.646 528.936 346.753C528.697 347.002 528.459 347.251 528.099 347.502C518.892 355.737 507.854 363.268 495.108 370.214C494.746 370.343 494.386 370.594 494.026 370.845C481.278 377.669 466.939 383.661 451.253 388.941C450.77 389.071 450.408 389.2 449.925 389.33C434.238 394.487 417.202 398.809 399.303 402.288C398.818 402.296 398.214 402.428 397.73 402.559C379.708 405.917 360.823 408.432 341.192 409.857C340.586 409.867 340.1 409.874 339.494 409.884C319.863 411.309 299.607 411.642 278.97 410.878C278.363 410.888 277.757 410.898 277.15 410.908C260.762 410.32 244.119 409 227.464 406.947C223.209 406.404 218.953 405.861 214.696 405.196C214.09 405.206 213.479 404.971 212.994 404.979C192.561 401.885 173.084 397.917 155.046 392.946C154.559 392.832 154.072 392.717 153.461 392.482C135.424 387.511 118.708 381.784 103.315 375.299C102.826 375.062 102.46 374.946 101.971 374.709C86.8202 368.221 73.113 360.974 61.0958 353.209C60.7279 352.97 60.4813 352.729 60.1134 352.49C48.2175 344.723 38.0115 336.439 29.7403 327.755C29.4937 327.514 29.2471 327.274 29.0005 327.033C20.8505 318.347 14.5138 309.264 10.3564 299.9C10.3524 299.655 10.1058 299.415 9.97849 299.049C5.94437 289.806 4.09146 280.404 4.4198 270.845L4.42583 271.212C4.0995 280.894 5.95442 290.418 9.98854 299.661C9.99256 299.906 10.2391 300.147 10.3665 300.513C14.5259 309.999 20.7433 319.206 29.0165 328.012C29.2631 328.253 29.5098 328.494 29.7564 328.735C38.0296 337.541 48.2376 345.948 60.1335 353.715C60.5014 353.954 60.8693 354.193 61.1159 354.434C73.1331 362.198 86.8423 369.568 101.993 376.056C102.482 376.293 102.848 376.409 103.337 376.646C118.609 383.133 135.327 388.983 153.364 393.954C153.851 394.068 154.339 394.183 154.949 394.418C173.108 399.387 192.464 403.356 212.897 406.451C213.503 406.441 214.114 406.676 214.599 406.668C218.735 407.335 222.99 407.877 227.367 408.418C244.022 410.472 260.665 411.791 277.053 412.379C277.66 412.37 278.266 412.36 278.872 412.35C299.508 412.991 319.764 412.658 339.395 411.233C340.001 411.224 340.486 411.216 341.093 411.206C360.722 409.658 379.607 407.143 397.629 403.785C398.114 403.777 398.598 403.647 399.202 403.514C417.101 400.036 434.135 395.591 449.82 390.312C450.303 390.181 450.665 390.053 451.146 389.8C466.832 384.52 481.167 378.283 493.915 371.459C494.275 371.208 494.637 371.08 494.997 370.829C507.743 363.882 518.779 356.229 527.984 347.871C528.222 347.622 528.461 347.373 528.821 347.122C537.666 339.015 544.679 330.203 549.62 320.812C549.624 321.057 549.628 321.302 549.632 321.547C549.643 322.159 549.653 322.772 549.663 323.384C544.662 336.573 537.59 349.183 528.684 360.966C528.447 361.338 528.211 361.709 527.851 361.96C518.585 373.994 507.486 385.2 494.794 395.453C494.434 395.704 494.077 396.077 493.717 396.328C480.903 406.583 466.495 415.761 450.856 423.858C450.375 424.111 450.015 424.361 449.532 424.492C433.771 432.59 416.778 439.484 398.796 445.291C398.313 445.421 397.832 445.674 397.227 445.807C379.243 451.492 360.267 455.845 340.662 458.862C340.056 458.872 339.572 459.003 338.968 459.135C319.361 462.029 299.004 463.588 278.381 463.682C277.774 463.692 277.168 463.702 276.561 463.712C260.181 463.613 243.544 462.661 226.889 460.608C222.634 460.065 218.378 459.522 214.242 458.855C213.636 458.865 213.025 458.63 212.54 458.638C192.105 455.422 172.735 450.595 154.56 444.646C154.073 444.532 153.584 444.295 152.976 444.182C134.92 438.109 118.178 430.789 102.998 422.464C102.508 422.227 102.141 421.988 101.651 421.751C86.4685 413.304 72.8463 403.85 60.7889 393.636C60.421 393.398 60.0511 393.036 59.8045 392.795C47.9876 382.455 37.7335 371.231 29.5332 359.484C29.2846 359.121 29.036 358.757 28.7894 358.517C20.5872 346.647 14.4368 334.131 10.3424 321.214C10.3364 320.847 10.0878 320.484 9.96044 320.118C7.0099 310.367 5.14895 300.476 4.6182 290.318L4.62826 290.93C5.15699 300.966 7.01794 310.857 9.96848 320.608C9.97451 320.975 10.2231 321.339 10.3504 321.704C14.4469 334.744 20.7185 347.257 28.8015 359.251C29.0501 359.615 29.2987 359.978 29.5453 360.219C37.7476 372.089 48.0017 383.312 59.8206 393.775C60.1885 394.014 60.4371 394.377 60.805 394.616C72.7432 404.954 86.4886 414.528 101.671 422.976C102.161 423.213 102.529 423.452 103.018 423.689C118.32 432.012 135.063 439.454 152.998 445.529C153.485 445.644 153.974 445.881 154.583 445.993C172.636 451.944 192.127 456.769 212.562 459.985C213.169 459.975 213.779 460.21 214.265 460.202C218.4 460.869 222.656 461.412 226.911 461.955C243.566 464.009 260.203 464.96 276.583 465.059C277.19 465.049 277.796 465.039 278.403 465.029C299.026 464.935 319.262 463.378 338.99 460.482C339.597 460.472 340.08 460.342 340.684 460.209C360.289 457.193 379.263 452.716 397.247 447.031C397.731 446.901 398.212 446.648 398.816 446.516C416.798 440.708 433.789 433.692 449.55 425.594C450.031 425.341 450.391 425.09 450.872 424.837C466.509 416.619 480.915 407.318 493.729 397.063C494.089 396.812 494.446 396.439 494.806 396.188C507.496 385.813 518.715 374.482 527.859 362.45C528.096 362.078 528.332 361.707 528.692 361.456C537.596 349.551 544.668 336.94 549.667 323.629C549.679 324.364 549.691 325.099 549.699 325.588C544.872 341.959 537.85 357.631 529.114 372.351C528.879 372.845 528.642 373.216 528.285 373.589C519.19 388.683 508.138 402.706 495.613 415.773C495.255 416.147 494.897 416.52 494.54 416.893C481.892 429.84 467.647 441.588 452.046 452.011C451.565 452.264 451.207 452.638 450.726 452.89C435.125 463.313 418.166 472.289 400.333 479.809C399.852 480.062 399.369 480.192 398.767 480.447C380.811 487.846 361.982 493.79 342.399 498.154C341.793 498.164 341.311 498.417 340.707 498.549C321.12 502.668 300.901 505.205 280.285 505.788C279.679 505.798 279.072 505.808 278.466 505.818C262.094 506.209 245.461 505.502 228.805 503.448C224.55 502.906 220.295 502.363 216.159 501.696C215.553 501.706 214.942 501.471 214.455 501.357C194.016 497.895 174.519 492.703 156.451 485.895C155.962 485.658 155.475 485.544 154.864 485.309C136.794 478.378 120.033 469.834 104.706 460.041C104.217 459.804 103.847 459.443 103.358 459.206C88.1512 449.289 74.3796 438.123 62.286 425.705C61.9161 425.343 61.5462 424.982 61.2976 424.619C49.3253 412.199 39.0349 398.771 30.6712 384.454C30.4225 384.091 30.1719 383.605 29.9233 383.241C21.6808 368.923 15.2437 353.717 10.9817 337.985C10.9736 337.495 10.725 337.132 10.5957 336.644C8.65773 329.449 7.32416 322.121 6.23119 314.667L6.24325 315.402C7.33421 322.734 8.78706 329.937 10.6017 337.012C10.6098 337.501 10.8584 337.865 10.9877 338.353C15.2517 354.207 21.6889 369.412 29.9333 383.854C30.1819 384.217 30.4326 384.703 30.6812 385.066C39.045 399.383 49.3373 412.933 61.3096 425.353C61.6795 425.715 62.0494 426.076 62.298 426.44C74.3917 438.858 88.1633 450.023 103.372 460.063C103.861 460.3 104.231 460.661 104.721 460.898C120.049 470.814 136.808 479.235 154.999 486.164C155.489 486.401 155.976 486.515 156.586 486.75C174.775 493.556 194.153 498.873 214.592 502.334C215.199 502.324 215.809 502.559 216.296 502.674C220.432 503.341 224.69 504.006 228.943 504.426C245.598 506.48 262.233 507.309 278.603 506.796C279.21 506.786 279.816 506.776 280.423 506.766C301.038 506.182 321.257 503.645 340.842 499.404C341.449 499.394 341.93 499.141 342.534 499.009C362.119 494.768 380.946 488.701 398.9 481.18C399.381 480.927 399.864 480.796 400.467 480.541C418.299 473.022 435.256 463.924 450.857 453.501C451.339 453.248 451.696 452.874 452.178 452.622C467.778 442.199 482.021 430.328 494.669 417.381C495.027 417.008 495.385 416.634 495.742 416.261C508.267 403.194 519.318 389.048 528.412 373.955C528.646 373.461 528.883 373.09 529.241 372.716C537.975 357.874 544.876 342.204 549.703 325.833C549.713 326.446 549.721 326.935 549.97 327.299C545.423 345.992 538.921 363.738 530.463 380.658C530.229 381.152 529.994 381.646 529.76 382.14C520.944 399.433 510.289 415.532 498.038 430.433C497.68 430.806 497.324 431.302 496.966 431.675C484.593 446.577 470.619 460.036 455.289 472.169C454.81 472.545 454.45 472.796 453.971 473.171C438.639 485.182 421.948 495.745 404.259 504.61C403.778 504.863 403.297 505.116 402.815 505.369C385.124 514.111 366.313 521.157 346.987 526.374C346.383 526.507 345.9 526.637 345.295 526.769C325.846 531.866 305.758 535.013 285.148 535.964C284.542 535.974 283.935 535.984 283.329 535.994C266.963 536.752 250.453 536.166 233.677 534.114C229.421 533.571 225.166 533.029 220.907 532.241C220.3 532.251 219.69 532.016 219.203 531.902C198.761 528.318 179.258 522.758 160.936 515.22C160.447 514.983 159.958 514.746 159.349 514.633C141.148 507.092 124.251 497.693 108.785 486.8C108.294 486.441 107.926 486.202 107.435 485.842C92.0888 474.825 78.0526 462.316 65.8155 448.553C65.4456 448.192 65.0737 447.708 64.8251 447.344C52.5861 433.459 42.1483 418.441 33.3905 402.293C33.1399 401.807 32.8893 401.322 32.6406 400.958C25.2512 386.87 19.186 372.148 14.6875 356.788C19.188 372.271 25.136 387.24 32.6467 401.326C32.8973 401.811 33.1479 402.297 33.3966 402.661C42.033 418.81 52.5941 433.948 64.8331 447.834C65.203 448.196 65.575 448.679 65.8236 449.043C78.1819 462.804 92.0989 475.437 107.565 486.33C108.056 486.69 108.424 486.929 108.915 487.288C124.38 498.181 141.399 507.578 159.479 515.121C159.968 515.358 160.457 515.595 161.065 515.707C179.264 523.126 198.77 528.808 219.332 532.39C219.939 532.38 220.549 532.615 221.036 532.729C225.172 533.396 229.429 534.061 233.806 534.602C250.461 536.656 267.092 537.24 283.458 536.482C284.065 536.472 284.671 536.462 285.278 536.452C305.764 535.38 325.973 532.231 345.423 527.135C346.027 527.002 346.51 526.872 347.115 526.739C366.562 521.521 385.252 514.477 402.943 505.734C403.424 505.481 403.905 505.228 404.507 504.974C422.197 496.109 438.887 485.545 454.219 473.534C454.699 473.159 455.058 472.908 455.538 472.533C470.868 460.399 484.84 446.818 497.213 431.916C497.571 431.543 497.926 431.047 498.284 430.673C510.534 415.651 521.187 399.429 530.002 382.136C530.237 381.642 530.471 381.148 530.706 380.654C539.163 363.734 545.664 345.866 550.21 327.172C550.216 327.54 550.463 327.781 550.588 328.024C546.549 348.056 540.554 367.141 532.602 385.278C532.367 385.772 532.134 386.388 531.9 386.882C523.59 405.392 513.442 422.83 501.572 438.826C501.217 439.322 500.859 439.696 500.503 440.191C488.512 456.19 475.043 470.865 460.093 483.972C459.614 484.348 459.256 484.721 458.777 485.096C443.825 498.081 427.391 509.498 410.078 519.091C409.596 519.344 409.115 519.597 408.634 519.85C391.198 529.323 372.763 537.098 353.566 542.803L351.876 543.32C332.677 548.903 312.595 552.417 292.234 553.731C291.628 553.741 291.021 553.751 290.415 553.761C274.172 554.64 257.545 554.301 240.888 552.125C236.633 551.582 232.375 550.917 228.118 550.252C227.512 550.262 226.901 550.027 226.414 549.912C205.851 546.33 186.342 540.403 167.895 532.622C167.405 532.385 166.795 532.15 166.306 531.913C147.977 524.007 130.83 514.121 115.111 502.62C114.62 502.261 114.252 502.022 113.761 501.662C98.0408 490.039 83.8712 476.797 71.2562 462.183C70.8863 461.821 70.5144 461.338 70.1445 460.976C67.4218 457.714 64.6991 454.451 62.0957 451.064C64.7011 454.573 67.4238 457.836 70.2698 461.219C70.6417 461.703 71.0116 462.064 71.3815 462.426C83.9965 477.04 98.2895 490.402 113.888 502.028C114.38 502.387 114.75 502.749 115.239 502.986C130.957 514.487 148.105 524.372 166.433 532.278C166.922 532.515 167.411 532.752 168.022 532.987C186.348 540.771 205.979 546.696 226.541 550.278C227.148 550.268 227.758 550.503 228.245 550.617C232.503 551.282 236.639 551.949 241.015 552.49C257.67 554.544 274.178 555.008 290.542 554.127C291.149 554.117 291.755 554.107 292.361 554.097C312.722 552.783 332.804 549.268 352.003 543.686L351.773 544.424Z" fill="#5A9CFF" fill-opacity="0.3"/>
</svg>