<svg xmlns="http://www.w3.org/2000/svg" width="42" height="36" viewBox="0 0 42 36" fill="none">
  <path fill-rule="evenodd" clip-rule="evenodd" d="M19.5211 0.09547C17.2543 0.595521 15.4921 1.95702 14.5127 3.96519C14.1088 4.79322 13.9299 5.46422 13.8633 6.39963L13.8099 7.153L13.1287 7.53683C8.68764 10.0398 5.76956 14.4277 5.28463 19.3323L5.22445 19.9411L4.67191 20.219C3.06103 21.0292 1.78857 22.5578 1.19475 24.396C1.01519 24.9518 0.984924 25.2268 0.984924 26.3013C0.984924 27.3758 1.01519 27.6509 1.19475 28.2066C1.95389 30.5566 3.7042 32.2493 6.13422 32.9834C6.71577 33.1591 6.98613 33.186 8.14916 33.1836C9.41624 33.181 9.53812 33.1656 10.2978 32.9115L11.1031 32.6422L11.4172 32.8815C12.6176 33.7963 14.5009 34.754 16.0867 35.2564C18.6394 36.0651 21.6296 36.2222 24.303 35.6882C26.3819 35.273 28.9518 34.1243 30.5828 32.8815L30.8968 32.6422L31.7022 32.9115C32.4619 33.1656 32.5838 33.181 33.8508 33.1836C35.0149 33.186 35.2833 33.1592 35.8626 32.9833C38.3378 32.2317 40.0279 30.5972 40.8052 28.2036C40.985 27.6498 41.0151 27.3769 41.0151 26.3013C41.0151 25.2268 40.9848 24.9518 40.8052 24.396C40.2114 22.5578 38.939 21.0292 37.3281 20.219L36.7755 19.9411L36.7154 19.3323C36.2374 14.4983 33.3782 10.1374 29.05 7.64093L28.1895 7.14451L28.1401 6.3449C28.0408 4.73519 27.3111 3.20836 26.0654 2.00327C25.2158 1.18157 24.3935 0.690699 23.2255 0.308256C22.4881 0.0668908 22.249 0.0306905 21.2239 0.00540215C20.4568 -0.0134775 19.876 0.0172666 19.5211 0.09547ZM14.8076 10.4032C15.3591 11.4085 16.4819 12.4384 17.6865 13.0437C18.8838 13.6454 19.5155 13.787 21 13.787C22.4845 13.787 23.1162 13.6454 24.3135 13.0437C25.5181 12.4384 26.6409 11.4085 27.1924 10.4032C27.3081 10.1923 27.4353 10.0198 27.4749 10.0198C27.5147 10.0198 27.7969 10.1819 28.102 10.3799C30.3636 11.8483 32.1098 13.9758 33.0634 16.4246C33.2796 16.9798 33.6565 18.4258 33.7474 19.0482C33.7931 19.3611 33.785 19.373 33.528 19.373C33.0837 19.373 31.9163 19.6332 31.2986 19.8698C29.189 20.678 27.6796 22.2634 26.9861 24.3991C26.8062 24.9528 26.7762 25.2257 26.7762 26.3013C26.7762 27.3766 26.8063 27.6499 26.9859 28.2029C27.2434 28.9958 27.6872 29.8614 28.1126 30.4004C28.2888 30.6236 28.4325 30.8351 28.4321 30.8704C28.4297 31.0734 26.3856 32.1152 25.1878 32.524C22.6038 33.4057 19.4034 33.406 16.8122 32.5248C15.718 32.1528 14.1756 31.3888 13.5757 30.9217C13.5558 30.9062 13.7018 30.6689 13.9002 30.3945C14.3843 29.7244 14.7602 28.9848 15.0139 28.2036C15.1937 27.6498 15.2238 27.3769 15.2238 26.3013C15.2238 24.9164 15.0834 24.2918 14.5332 23.2299C13.4185 21.0784 11.2157 19.5946 8.8491 19.4011C8.24686 19.3519 8.19993 19.3339 8.23504 19.1656C8.2559 19.0653 8.32092 18.7105 8.37957 18.377C8.61761 17.023 9.42887 15.1005 10.2799 13.8736C10.899 12.9812 11.8408 11.9537 12.6068 11.3352C13.399 10.6954 14.362 10.0313 14.5076 10.0242C14.5569 10.0218 14.6919 10.1923 14.8076 10.4032Z" fill="#5A9CFF"/>
</svg>