<svg xmlns="http://www.w3.org/2000/svg" width="42" height="36" viewBox="0 0 42 36" fill="none">
  <path fill-rule="evenodd" clip-rule="evenodd" d="M2.96268 0.117046C2.18261 0.359871 1.55743 0.876683 1.19929 1.5747C1.025 1.91446 1.02171 1.96785 1.02171 4.48832V7.05585L1.23208 7.45934C1.50092 7.97481 2.11241 8.5244 2.68593 8.76603L3.13486 8.95512H21.0184H38.9019L39.3508 8.76603C39.9244 8.5244 40.5359 7.97481 40.8047 7.45934L41.0151 7.05585V4.48832V1.92079L40.8047 1.5173C40.5359 1.00182 39.9244 0.452231 39.3508 0.210602L38.9019 0.0215193L21.1358 0.00590313C4.2002 -0.0089393 3.35064 -0.00373389 2.96268 0.117046ZM4.77936 13.6058C3.90538 13.7957 3.19818 14.169 2.46679 14.8262C1.43409 15.7545 0.984924 16.7148 0.984924 17.9942C0.984924 19.2738 1.43416 20.2342 2.46679 21.1619C3.49566 22.0862 4.57493 22.4941 5.99153 22.4941C7.41509 22.4941 8.48348 22.0904 9.51627 21.1622C10.549 20.234 10.9981 19.2737 10.9981 17.9942C10.9981 16.721 10.5443 15.751 9.51595 14.8262C8.77299 14.1582 8.07267 13.7934 7.1655 13.6018C6.53524 13.4687 5.40173 13.4706 4.77936 13.6058ZM16.2358 13.6574C15.1862 14.0466 14.5382 14.7597 14.3637 15.7176C14.2629 16.2707 14.2629 33.2236 14.3637 33.7767C14.5188 34.628 15.1185 35.3491 15.9933 35.7361L16.5149 35.9669H27.7084H38.9019L39.3508 35.7779C39.9244 35.5362 40.5359 34.9866 40.8047 34.4712L41.0151 34.0677V24.7472V15.4267L40.8047 15.0232C40.5359 14.5077 39.9244 13.9581 39.3508 13.7165L38.9019 13.5274L27.7883 13.511L16.6747 13.4946L16.2358 13.6574ZM4.77936 27.1117C3.90538 27.3016 3.19818 27.6749 2.46679 28.3322C1.43409 29.2604 0.984924 30.2207 0.984924 31.5001C0.984924 32.7798 1.43416 33.7401 2.46679 34.6678C3.49566 35.5921 4.57493 36 5.99153 36C7.41509 36 8.48348 35.5963 9.51627 34.6681C10.549 33.7399 10.9981 32.7796 10.9981 31.5001C10.9981 30.2269 10.5443 29.2569 9.51595 28.3322C8.77299 27.6641 8.07267 27.2993 7.1655 27.1077C6.53524 26.9746 5.40173 26.9765 4.77936 27.1117Z" fill="#5A9CFF"/>
</svg>