<svg xmlns="http://www.w3.org/2000/svg" width="42" height="36" viewBox="0 0 42 36" fill="none">
  <path fill-rule="evenodd" clip-rule="evenodd" d="M17.6028 0.143182C17.5791 0.221891 17.4124 0.909573 17.2323 1.67122C17.0522 2.43286 16.8574 3.10295 16.7995 3.16023C16.7415 3.21758 16.3267 3.34383 15.8778 3.4407C15.4289 3.53765 14.748 3.72355 14.3648 3.85388C13.9816 3.9843 13.606 4.09091 13.5303 4.09091C13.4546 4.09091 12.8849 3.55885 12.2643 2.90864L11.136 1.72636L10.6832 1.98368C10.4341 2.12523 9.91325 2.42714 9.52576 2.65459L8.82106 3.06818L9.25895 4.54091C9.49982 5.35091 9.69725 6.07565 9.69774 6.15142C9.69848 6.27709 7.29834 8.75389 7.17463 8.75504C7.14526 8.75536 6.4287 8.54894 5.58221 8.29636C4.7358 8.04379 4.03314 7.85029 4.02087 7.86633C3.92015 7.99773 2.74402 10.0878 2.74402 10.1354C2.74402 10.1693 3.25947 10.6854 3.88947 11.2822C4.72426 12.0731 5.03492 12.4191 5.03492 12.5581C5.03492 12.6631 4.92758 13.0773 4.79642 13.4787C4.66527 13.8801 4.4946 14.5276 4.41712 14.9175C4.33972 15.3074 4.22926 15.691 4.17166 15.77C4.09966 15.8688 3.58625 16.0292 2.52597 16.284L0.984924 16.6545V18V19.3455L2.51746 19.716C3.36035 19.9197 4.10097 20.1416 4.16323 20.2091C4.2255 20.2766 4.3398 20.6602 4.4172 21.0616C4.4946 21.463 4.66527 22.1199 4.79642 22.5213C4.92758 22.9227 5.03492 23.3369 5.03492 23.4419C5.03492 23.5809 4.72426 23.9269 3.88947 24.7178C3.25947 25.3146 2.74402 25.8307 2.74402 25.8646C2.74402 25.9127 3.92261 28.0065 4.02185 28.1347C4.03462 28.1512 4.7205 27.9579 5.54588 27.7051C6.37134 27.4523 7.08701 27.2455 7.13618 27.2455C7.27617 27.2455 9.69856 29.6879 9.69856 29.829C9.69856 29.8982 9.49721 30.6227 9.2511 31.439C9.00507 32.2554 8.81173 32.9283 8.82155 32.9344C9.53075 33.374 11.0577 34.2008 11.1278 34.1833C11.1812 34.17 11.675 33.6805 12.2253 33.0955C12.7756 32.5105 13.2977 31.9984 13.3855 31.9577C13.4989 31.9051 13.7889 31.9583 14.3836 32.141C14.8448 32.2825 15.5454 32.4691 15.9407 32.5554C16.336 32.6418 16.7107 32.755 16.7735 32.8071C16.8361 32.8592 17.0208 33.4608 17.1838 34.144C17.3468 34.8273 17.5164 35.5245 17.5606 35.6932L17.6412 36H18.4972H19.3531V32.4907V28.9813L18.5145 28.9241C16.8403 28.8099 15.4166 28.4387 14.0851 27.7691C10.9655 26.2002 8.77802 23.2419 8.17568 19.7774C8.07602 19.2042 8.0541 18.6883 8.08445 17.6318C8.11898 16.4288 8.1576 16.1138 8.37065 15.3C8.86655 13.4048 9.76974 11.8015 11.1323 10.3973C13.1088 8.36035 15.5611 7.24205 18.4339 7.06762L19.3531 7.01174V3.50591V0H18.4995C17.7576 0 17.6403 0.0187364 17.6028 0.143182ZM29.9895 0.661173C29.1921 1.02215 28.8079 1.61845 28.8079 2.49545C28.8079 3.16882 28.991 3.58846 29.4673 4.00664C29.8846 4.37302 30.2252 4.5 30.7904 4.5C32.0907 4.5 33.0698 3.28958 32.7723 2.04963C32.4802 0.831927 31.1159 0.151282 29.9895 0.661173ZM20.2531 2.49545V3.02727H24.0576H27.8622V2.49545V1.96364H24.0576H20.2531V2.49545ZM35.8657 6.7383C34.6291 7.08128 34.0079 8.45885 34.5804 9.5886C35.2602 10.93 37.1359 11.0905 38.0113 9.88192C39.1245 8.34521 37.6836 6.23405 35.8657 6.7383ZM18.0849 7.99364C13.88 8.37564 10.3556 11.3791 9.22369 15.5455C9.0288 16.2628 9.01252 16.4522 9.01252 18C9.01252 19.5478 9.0288 19.7372 9.22369 20.4545C10.2481 24.2251 13.2113 27.0532 16.9395 27.8186C20.1555 28.4789 23.4103 27.5515 25.8394 25.283C30.294 21.123 29.982 13.9618 25.1795 10.1335C23.2054 8.55974 20.5776 7.76716 18.0849 7.99364ZM23.9349 8.21168C23.9349 8.22813 24.2265 8.41099 24.583 8.61807C24.9394 8.82524 25.2546 9.03265 25.2833 9.07912C25.3181 9.13541 26.6932 9.16364 29.4011 9.16364H33.4667V8.67273V8.18182H28.7008C26.0795 8.18182 23.9349 8.19524 23.9349 8.21168ZM20.7602 10.9543C24.5235 11.9348 26.8503 15.6587 26.0682 19.449C25.493 22.2361 23.3654 24.4019 20.5283 25.0885C19.6927 25.2907 18.1958 25.2728 17.283 25.0498C14.5334 24.3779 12.4415 22.215 11.8508 19.4332C11.6952 18.7003 11.7495 16.7937 11.9465 16.0773C12.1574 15.3099 12.7574 14.1466 13.2839 13.484C14.4089 12.0683 15.8909 11.1878 17.7447 10.8336C18.5245 10.6846 19.9429 10.7413 20.7602 10.9543ZM18.083 11.6937C14.8944 12.2037 12.644 14.8129 12.644 18C12.644 20.9221 14.5035 23.3445 17.3657 24.151C18.1705 24.3777 19.6 24.3961 20.4428 24.1904C22.1958 23.7627 23.7541 22.5412 24.5828 20.9455C25.1392 19.874 25.2838 19.2668 25.2838 18C25.2838 17.0714 25.2533 16.7983 25.0927 16.2853C24.6908 15.0012 23.984 13.909 23.0493 13.1274C22.4106 12.5932 21.254 12.0035 20.4986 11.827C19.8394 11.6729 18.6302 11.6062 18.083 11.6937ZM39.235 13.6693C38.504 13.9766 38.2021 14.8549 38.59 15.5451C39.0393 16.3445 40.1819 16.4185 40.7417 15.6845C41.3639 14.8687 40.8401 13.6845 39.8247 13.6111C39.6128 13.5958 39.3474 13.622 39.235 13.6693ZM29.3349 14.4488C29.3349 14.4756 29.3928 14.6965 29.4635 14.9397L29.592 15.3818H33.5544H37.5167V14.8909V14.4H33.4258C31.1758 14.4 29.3349 14.4219 29.3349 14.4488ZM39.0649 19.9861C38.6408 20.2718 38.4167 20.6601 38.4167 21.1091C38.4167 22.0881 39.496 22.7213 40.3395 22.2372C40.7743 21.9876 41.0594 21.447 41.0094 20.9664C40.968 20.5676 40.6538 20.1064 40.2984 19.9226C39.9414 19.7381 39.3909 19.7664 39.0649 19.9861ZM29.4726 21.0549C29.3969 21.2951 29.3349 21.5161 29.3349 21.5458C29.3349 21.5756 31.1758 21.6 33.4258 21.6H37.5167V21.1091V20.6182H33.5635H29.6102L29.4726 21.0549ZM35.485 25.4948C34.2182 26.1261 33.9835 27.8779 35.0413 28.8066C35.4548 29.1697 35.7943 29.2912 36.3891 29.2891C37.0467 29.2868 37.4674 29.0969 37.8977 28.6081C39.0481 27.301 38.1224 25.2906 36.3669 25.2836C36.0388 25.2823 35.7937 25.341 35.485 25.4948ZM25.2833 26.9209C25.2546 26.9674 24.9321 27.179 24.5666 27.3913L23.9023 27.7773L26.2914 27.799C27.6053 27.8109 29.7514 27.8109 31.0603 27.799L33.4402 27.7773L33.4536 27.3068L33.4669 26.8364H29.4012C26.6932 26.8364 25.3181 26.8646 25.2833 26.9209ZM29.9257 31.6779C29.1317 32.0629 28.6542 33.0204 28.8313 33.8727C29.2564 35.9178 32.079 36.0791 32.7377 34.096C33.0576 33.1333 32.5323 32.0133 31.5731 31.6125C31.1675 31.4431 30.3426 31.4758 29.9257 31.6779ZM20.2531 33.5045V34.0364H24.0576H27.8622V33.5045V32.9727H24.0576H20.2531V33.5045Z" fill="#5A9CFF"/>
</svg>