<svg xmlns="http://www.w3.org/2000/svg" width="132" height="36" viewBox="0 0 132 36" fill="none">
  <path d="M11.8647 4.25064C11.7162 3.44688 11.6722 2.54215 11.2799 1.89677C10.9792 1.40382 11.0416 0.441683 10.2587 0.433764C9.14775 0.421886 8.02392 0.0714773 6.93126 0.425845C6.21259 0.657471 5.48476 0.65747 4.78076 0.59412C3.52126 0.479297 2.3131 0.952447 1.06277 0.833665C0.751099 0.803969 0.494435 0.990061 0.514602 1.39986C0.534768 1.77996 0.641098 2.16403 1.06093 2.11849C2.46159 1.96606 2.61926 2.98165 2.61926 4.06257C2.62293 7.05391 2.5826 10.0452 2.55876 13.0366C2.55326 13.6364 2.22876 13.8542 1.72277 13.8601C0.963767 13.8681 0.7126 14.3709 0.719934 15.0915C0.727267 15.9151 1.3506 15.822 1.8236 15.8874C2.91259 16.0339 3.97409 15.4875 5.07409 15.7211C5.57276 15.828 5.95226 15.6518 5.97976 15.0282C6.00542 14.4085 5.94309 13.7315 5.19326 13.7651C4.02543 13.8166 3.89343 13.1079 3.94659 12.122C3.97226 11.6587 3.90443 11.1875 3.86043 10.7223C3.77793 9.81956 4.06026 9.15438 4.95309 9.05341C6.22909 8.90889 6.61959 9.21772 6.54259 10.463C6.50042 11.1519 6.70025 11.6092 7.21542 11.6706C7.86442 11.7478 7.97442 11.1281 8.01292 10.5342C8.08809 9.35828 7.76725 8.19224 7.95242 7.14497C7.95242 6.58669 7.97075 6.15314 7.94875 5.72552C7.91575 5.09399 8.13025 4.18927 7.26492 4.13582C6.30059 4.07841 6.45092 5.00887 6.42159 5.69583C6.41792 5.77502 6.41426 5.85222 6.40509 5.93141C6.27309 7.03015 5.46092 7.03015 4.75326 7.00045C4.07493 6.97076 3.76509 6.48771 3.86776 5.69979C3.93926 5.16131 3.89159 4.60303 3.89159 4.05465C3.89342 2.54611 4.76609 1.75027 6.16859 2.10266C6.89275 2.28479 7.59675 2.36398 8.32092 2.25707C9.29075 2.11256 9.85175 2.55403 10.0222 3.58744C10.0791 3.93389 10.1176 4.28627 10.1854 4.63074C10.2972 5.19694 10.4567 5.7275 11.1607 5.58694C11.8757 5.44242 11.9839 4.88613 11.8647 4.25064Z" fill="#5A9CFF"/>
  <path d="M98.2862 10.5204C98.2495 10.0294 98.013 9.73045 97.5162 9.72649C97.0029 9.72055 96.7884 10.0531 96.7719 10.5322C96.7572 10.9559 96.8012 11.3894 96.8654 11.8091C97.0909 13.2622 96.8379 13.6443 95.4812 13.8245C95.0467 13.8819 94.6085 13.8997 94.1887 13.7314C93.7285 13.5473 93.2665 13.5275 92.8009 13.6859C91.9594 13.971 91.6312 13.5117 91.413 12.7C91.1637 11.7735 91.2609 10.8034 91.2884 9.91852C91.3305 8.56638 90.6669 7.27759 91.1014 5.91357C91.2609 5.41072 91.3379 4.81483 91.259 4.29615C91.006 2.64903 91.2645 2.22537 92.9365 2.10659C93.5122 2.06699 93.6515 1.76608 93.7799 1.26521C93.9229 0.708914 93.5855 0.582212 93.2537 0.425815C92.8559 0.235763 92.4562 0.0298739 92.0034 0.0773869C90.7842 0.206068 89.5632 0.164494 88.3404 0.140738C87.563 0.12688 87.3907 0.873229 87.3577 1.44932C87.3265 1.98979 87.7244 2.39167 88.3294 2.19567C89.1507 1.93039 89.378 2.45304 89.4422 3.16177C89.488 3.6666 89.4697 4.17736 89.4844 4.68417C89.5485 6.82621 89.5742 8.97024 89.6952 11.1083C89.763 12.3041 90.0399 13.4681 88.4705 13.8324C87.9444 13.9551 87.5594 14.5372 87.717 15.2142C87.8564 15.8121 88.3587 15.9744 88.8482 15.8715C91.2022 15.3726 93.569 15.9566 95.9322 15.7349C98.0387 15.5369 98.6033 14.9866 98.3962 12.7119C98.3613 11.9814 98.3394 11.2489 98.2844 10.5204H98.2862Z" fill="#5A9CFF"/>
  <path d="M80.512 15.3727C80.6037 14.7392 80.2279 14.4422 79.7219 14.3096C78.895 14.0938 78.6604 13.4821 78.675 12.6427C78.6989 11.0866 78.675 9.53055 78.7099 7.97647C78.7209 7.5053 78.5705 7.13707 78.3175 6.79458C77.1075 5.15934 74.9515 4.34766 73.241 6.11752C72.526 6.85793 72.0824 6.68174 71.9614 5.62061C71.8349 4.51593 71.8147 3.38354 71.8624 2.27094C71.9119 1.13062 71.3087 0.863362 70.4654 0.841585C70.1079 0.831686 69.732 0.873261 69.3947 0.992044C69.1014 1.09499 68.5495 0.80595 68.5587 1.44738C68.5679 2.02941 68.9327 2.45703 69.4497 2.45109C70.7367 2.43525 70.7257 3.71613 70.7074 4.3338C70.6377 6.8025 70.656 9.2613 70.7752 11.726C70.8045 12.3457 70.7037 12.9733 70.645 13.5969C70.5882 14.1967 70.425 14.6204 69.7064 14.563C68.9932 14.5075 68.6559 15.1094 68.8887 15.7211C69.1289 16.3546 69.886 16.2715 70.4269 16.2992C70.8467 16.321 71.4792 16.3328 71.4242 15.5271C71.6827 15.5271 71.6552 15.7389 71.7377 15.8518C72.3427 16.6714 72.8175 15.7686 73.3547 15.7033C73.5014 15.6855 73.8607 15.6954 73.6554 15.44C73.0339 14.6659 73.8552 15.0341 74.0184 14.8718C73.9029 14.4778 73.5985 14.3373 73.2795 14.3135C72.317 14.2423 71.6992 13.9611 72.24 12.7377C72.3885 12.4011 72.2199 12.0527 72.1539 11.7082C71.6662 9.13856 73.3364 6.80646 75.6739 6.71143C76.4952 6.67778 77.0104 7.00245 77.1735 7.86759C77.4522 9.33851 77.5145 10.8391 77.5439 12.3318C77.5787 14.0938 77.5164 14.2007 75.9452 14.5075C75.1404 14.6639 75.6665 15.2242 75.5565 15.5707C75.4355 15.9448 75.76 16.2259 76.0607 16.0775C77.1919 15.5172 78.3524 16.1705 79.4872 15.9131C79.8869 15.8221 80.4185 16.0596 80.5175 15.3766L80.512 15.3727Z" fill="#5A9CFF"/>
  <path d="M34.413 14.4243C33.7127 14.4916 33.3002 13.7611 33.6027 13.2622C33.6577 13.1732 33.7035 13.0346 33.6797 12.9396C33.2635 11.1875 33.8557 9.44537 33.5752 7.62998C33.1187 4.67229 30.0222 4.3892 28.4583 5.87398C28.0458 6.26596 27.637 6.66388 27.2025 7.0816C26.5608 5.34144 26.3573 5.16524 24.9457 5.15732C24.4433 5.15336 23.8365 5.10387 23.6898 5.78687C23.5358 6.5055 24.0033 6.85591 24.5937 7.00241C25.3178 7.18058 25.6185 7.71906 25.6295 8.45156C25.6533 10.0769 25.6478 11.7003 25.6442 13.3256C25.6442 13.973 25.3838 14.3313 24.7238 14.3511C24.271 14.3649 23.8475 14.5629 23.8823 15.1944C23.9153 15.7844 24.3058 15.9348 24.7678 16.0398C25.7395 16.2595 26.7203 16.1981 27.6957 16.1506C28.143 16.1289 28.671 16.1071 28.7938 15.432C28.924 14.7134 28.3062 14.648 27.9652 14.3709C27.6975 14.1531 27.12 14.2066 27.1823 13.7176C27.2942 12.8366 26.7717 12.0526 26.9532 11.1855C26.9532 11.1855 26.9403 11.2073 26.9385 11.2093C26.9348 11.2033 26.9312 11.1954 26.9293 11.1895C26.7662 11.2132 26.6012 11.2588 26.4417 11.2429C26.262 11.2251 26.097 11.1083 26.0842 10.8945C26.0787 10.8054 26.1575 10.6668 26.2327 10.6213C26.449 10.4887 26.6323 10.5421 26.7442 10.8074C26.7992 10.9381 26.867 11.0648 26.9312 11.1915C26.9385 11.1915 26.9477 11.1895 26.955 11.1875C26.9495 11.1855 26.9477 11.1836 26.9422 11.1816C26.9568 9.48892 27.8258 8.35851 29.0523 7.45774C29.8223 6.89155 30.728 6.62825 31.509 7.1014C32.235 7.54089 32.378 8.58024 32.235 9.39984C32.0077 10.6965 32.004 11.9636 32.169 13.2464C32.2772 14.0719 32.1873 14.5926 31.212 14.4798C30.8618 14.4402 30.222 14.361 30.2202 15.0559C30.2183 15.6478 30.6693 15.8378 31.168 15.9982C32.2698 16.3526 33.324 15.8933 34.4002 15.8953C34.831 15.8953 35.3865 15.9626 35.3297 15.2697C35.2893 14.7886 35.1115 14.355 34.4093 14.4243H34.413Z" fill="#5A9CFF"/>
  <path d="M44.5385 11.4172C44.1168 11.7973 43.246 11.9774 43.4165 12.6703C43.675 13.7255 43.1891 13.9017 42.4833 14.062C41.6326 14.2541 41.1835 13.8086 40.9561 12.9811C40.6573 11.8923 40.353 10.8054 40.485 9.87497C40.3236 6.751 40.6023 6.44612 43.3706 6.4778C43.6236 6.47978 43.8858 6.49363 44.1278 6.43226C44.4395 6.3511 44.7951 6.25013 44.8153 5.80272C44.8355 5.35333 44.4523 5.39886 44.2066 5.28008C43.345 4.86038 42.4136 5.13358 41.5208 4.97124C40.584 4.80099 40.1733 4.27835 40.32 3.31819C40.4245 2.63717 40.1605 2.00961 40.2228 1.34245C40.254 1.02569 40.067 0.722798 39.748 0.641631C39.462 0.568382 39.2896 0.817824 39.11 1.00986C38.4866 1.68098 38.6223 2.51839 38.6755 3.33601C38.7341 4.23083 38.5765 4.86632 37.5315 4.87028C37.0915 4.87028 36.6368 5.15733 36.217 5.3751C35.931 5.52358 35.7513 5.82845 36.0556 6.12541C36.3985 6.46196 36.7761 6.76881 37.174 7.02617C37.6965 7.36272 38.67 6.84404 38.8166 7.78638C38.923 8.46938 38.6516 9.22365 38.5416 9.94426C38.5178 10.0967 38.4646 10.2452 38.4261 10.3956C37.9275 12.4228 38.8368 14.0581 39.7956 15.6141C39.9936 15.9348 40.3585 16.5367 41.013 16.4159C41.8325 16.2655 42.6776 16.2615 43.4935 16.0932C44.4193 15.9012 45.0445 15.3033 45.2388 14.2462C45.3305 13.7492 45.5211 13.2761 45.6275 12.7812C45.7228 12.3377 45.9098 11.8428 45.545 11.4587C45.2571 11.1558 44.8391 11.1479 44.5403 11.4172H44.5385Z" fill="#5A9CFF"/>
  <path d="M119.179 6.35704C118.106 5.44241 116.726 4.89008 115.144 5.30185C114.608 5.44043 113.985 6.52135 113.455 5.62257C113.122 5.05637 113.233 4.18134 113.156 3.44489C113.136 3.25088 113.153 3.05291 113.153 3.02321C113.211 1.55427 112.598 0.805939 111.314 0.778223C111.169 0.774264 111.022 0.772284 110.878 0.778223C110.394 0.80198 109.858 0.835635 109.785 1.48696C109.704 2.20955 110.236 2.25904 110.729 2.29468C111.521 2.35011 111.825 2.82326 111.897 3.66464C112.209 7.33501 111.692 11.0173 112.062 14.6876C112.133 15.3944 112.128 15.7646 112.903 15.3489C113.101 15.242 113.479 15.0242 113.794 15.3964C114.451 16.1704 115.307 15.9943 116.137 15.8577C116.312 15.8299 116.491 15.7329 116.656 15.7587C118.211 15.9923 119.12 15.5666 119.835 14.1769C120.393 13.092 120.84 12.0091 120.79 10.6708C120.728 8.97421 120.341 7.34689 119.177 6.35506L119.179 6.35704ZM117.965 13.6344C116.678 14.551 115.393 14.6342 114.117 13.676C113.305 13.0643 113.327 12.1437 113.316 11.3281C113.305 10.4135 113.549 9.47904 113.771 8.57827C114.093 7.27562 114.828 6.71933 116.068 6.71735C117.754 6.7312 118.983 7.66167 119.454 9.65523C119.835 11.2707 119.375 12.6288 117.963 13.6344H117.965Z" fill="#5A9CFF"/>
  <path d="M22.5127 15.1014C22.9087 14.7847 23.1874 14.1096 22.8574 13.6839C22.4797 13.195 22.1131 13.7018 21.8216 14.068C21.7134 14.2026 21.5172 14.359 21.3816 14.3392C21.1157 14.2996 21.1359 14.0086 21.1304 13.777C21.0919 12.4862 20.7527 11.2212 20.8536 9.91854C20.8682 9.64534 20.8976 9.37214 20.8976 9.09894C20.9031 7.50132 20.6556 6.05415 19.1119 5.28009C17.6563 4.55155 16.2739 4.801 14.7926 5.29988C13.6633 5.67999 13.3424 6.54314 13.1976 7.5132C13.0803 8.29122 13.3241 9.11676 14.3123 9.14646C15.0749 9.17021 15.7991 9.09103 15.8412 7.97249C15.8962 6.54512 16.7928 5.86212 18.0523 6.36695C18.8681 6.6936 19.5153 7.33502 19.5299 8.35061C19.5446 9.36422 18.6682 9.15042 18.1127 9.42758C16.9633 10.0017 15.7679 10.0116 14.5506 10.071C13.5569 10.1185 12.5963 11.4093 12.5046 12.6189C12.3909 14.1413 12.8694 14.9411 14.0061 15.4518C15.6854 16.2061 17.2951 15.7943 18.8332 15.1014C19.4107 14.8421 19.7279 14.8223 20.1477 15.24C20.9691 16.0556 21.7867 15.6854 22.5109 15.1054L22.5127 15.1014ZM19.7334 11.7082C19.6619 13.4761 18.4482 14.561 16.3308 14.5689C16.2061 14.559 15.8706 14.5788 15.5589 14.4976C14.8219 14.3076 13.9089 14.167 13.8869 13.1415C13.8668 12.1814 14.6973 11.6924 15.3994 11.3578C15.9751 11.0826 16.6718 11.1083 17.3134 10.9935C17.7039 10.9223 18.1109 10.8906 18.4776 10.7461C19.8012 10.2254 19.7957 10.2115 19.7352 11.7082H19.7334Z" fill="#5A9CFF"/>
  <path d="M109.079 14.0898C108.727 14.5134 108.436 14.5114 108.41 13.8641C108.357 12.4961 108.01 11.1519 108.129 9.99375C108.129 9.26324 108.159 8.75445 108.124 8.24963C107.992 6.29962 107.035 5.22266 105.229 4.85642C104.026 4.61094 102.937 4.99104 101.837 5.4048C100.992 5.72353 100.259 7.05785 100.457 8.00019C100.648 8.91679 101.174 9.29293 102.045 9.14842C102.826 9.01775 103.211 8.58816 103.097 7.70917C103.027 7.17069 103.077 6.71338 103.636 6.458C104.784 5.93536 106.164 6.47978 106.672 7.69927C107.007 8.50501 106.826 9.07715 105.994 9.30085C104.683 9.65324 103.414 10.164 102.012 10.0888C100.945 10.0314 99.9601 11.1479 99.7988 12.4129C99.6155 13.8403 100.006 14.9529 101.3 15.4716C103.002 16.1546 104.587 15.7725 106.131 15.0895C106.648 14.8618 106.954 14.7708 107.356 15.1845C108.095 15.9467 108.859 15.7428 109.636 15.2301C110.183 14.8698 110.412 14.1472 110.175 13.7492C109.809 13.1316 109.4 13.7057 109.081 14.0898H109.079ZM107.006 11.5736C106.967 13.4325 105.772 14.557 103.621 14.5688C103.493 14.5589 103.159 14.5787 102.846 14.4996C102.107 14.3135 101.166 14.1709 101.165 13.1593C101.165 12.1932 101.951 11.6171 102.752 11.3182C103.324 11.1044 103.959 11.0568 104.569 11.0054C105.011 10.9697 105.433 10.8925 105.838 10.7163C106.636 10.3679 107.025 10.653 107.006 11.5716V11.5736Z" fill="#5A9CFF"/>
  <path d="M56.246 13.4583C56.2497 13.2128 56.1837 12.9831 55.9105 12.9416C55.1607 12.8307 54.5887 13.1811 54.0863 13.7493C53.6023 14.2977 53.0909 14.8203 52.3319 14.5055C50.8524 14.5946 49.7505 13.9413 48.9695 12.6763C48.2802 11.5597 48.4378 11.0846 49.657 11.0212C51.307 10.9361 52.9625 10.6471 54.6253 10.9619C55.7125 11.1677 56.2167 10.6114 56.2185 9.41966C56.2185 8.72478 55.9398 8.16651 55.6758 7.58051C54.3155 4.56344 50.7772 4.07247 48.4488 6.15116C47.1673 7.29345 47.1453 8.8693 46.9895 10.3897C46.7438 12.7891 48.6193 15.4202 50.7772 16.0002C52.308 16.412 53.6353 15.8933 54.9278 15.1668C55.5585 14.8124 56.2277 14.3947 56.2442 13.4543L56.246 13.4583ZM49.283 7.58447C50.9092 6.18878 52.4859 6.28974 54.1542 7.44391C54.4145 7.62406 54.574 7.71909 54.6308 8.0794C54.8563 9.47905 54.7849 9.58794 53.4209 9.58398C53.2045 9.58398 52.9919 9.58398 52.9625 9.58398C51.6224 9.45332 50.5773 9.86312 49.5415 9.54438C49.151 9.42362 48.5625 9.41966 48.59 8.80199C48.6102 8.32884 48.8668 7.9428 49.283 7.58645V7.58447Z" fill="#5A9CFF"/>
  <path d="M130.864 10.6847C129.636 9.20978 128.133 9.38598 126.662 9.4038C125.828 9.41369 125.388 8.99994 124.93 8.46739C124.723 8.22785 124.444 7.81409 124.695 7.53891C125.023 7.17662 125.121 6.44611 125.784 6.52926C126.639 6.63616 127.5 6.72129 128.334 6.92916C128.844 7.05586 129.321 7.3251 129.409 8.06551C129.466 8.54658 129.966 8.83166 130.347 8.81186C130.885 8.78613 130.778 8.21597 130.787 7.79231C130.798 7.28353 130.853 6.77474 130.846 6.26595C130.839 5.80864 130.668 5.28204 130.214 5.33351C128.899 5.48199 127.7 4.60102 126.29 4.95539C126.098 4.95539 125.81 4.95539 125.524 4.95539C124.532 4.94945 123.362 5.88981 123.02 6.97271C122.792 7.68937 123.28 9.5305 123.815 10.0135C124.083 10.2571 124.4 10.4036 124.723 10.2966C125.913 9.89476 126.996 10.6807 128.164 10.6273C128.67 10.6035 129.178 11.0014 129.603 11.3954C130.3 12.0428 130.144 12.799 129.61 13.3098C129.134 13.7651 128.609 14.1294 127.772 14.1868C125.957 14.3135 124.521 14.2541 124.024 11.9596C123.949 11.6092 123.509 11.3637 123.133 11.534C122.732 11.7141 122.862 12.1299 122.974 12.4565C123.161 13.0009 123.089 13.5315 122.998 14.0779C122.915 14.5748 122.858 15.0677 123.056 15.5726C123.337 16.2912 123.637 16.6693 124.255 15.8972C124.576 15.4954 124.956 15.2182 125.498 15.4043C126.84 15.8636 128.197 15.822 129.513 15.3469C130.919 14.8381 132.287 12.3932 130.864 10.6847Z" fill="#5A9CFF"/>
  <path d="M66.5074 14.6619C66.9089 14.4521 67.2811 13.9057 67.4003 13.4305C67.4828 13.1039 66.9327 12.9297 66.5899 12.7931C66.5001 12.7574 66.3699 12.6565 66.3663 12.5793C66.3204 11.8151 65.9812 12.0527 65.6787 12.3595C65.4716 12.5694 65.3378 12.8643 65.1544 13.1059C63.9187 14.7193 61.7939 14.7173 60.5216 13.193C59.7974 12.3259 60.0962 11.2845 59.9422 10.3343C59.6324 8.41989 60.8662 6.92125 62.6647 6.8282C63.6364 6.66586 64.4266 6.72526 64.3697 8.15856C64.3569 8.46542 64.6521 8.78019 64.7804 9.10289C65.0554 9.79578 65.5376 9.9502 66.1884 9.84726C66.8502 9.74233 67.2206 9.39192 67.3691 8.68121C67.6697 7.238 66.5807 5.64434 65.0591 5.21474C64.4156 5.03458 63.7372 5.2088 63.1414 4.95342C62.1734 4.53966 61.4217 5.29789 60.5546 5.41667C59.7791 5.52159 59.1796 6.5847 58.9852 7.08556C58.1786 9.16426 57.5516 11.3419 58.8991 13.6107C59.8652 15.238 63.1322 16.7861 64.7511 15.7369C65.3249 15.3647 65.8987 14.9826 66.5092 14.6619H66.5074Z" fill="#5A9CFF"/>
  <path d="M62.307 27.0589C62.2795 26.7026 62.5417 26.1562 61.8817 26.0592C61.295 25.974 61.0603 26.267 60.8843 26.8352C60.3563 28.5378 59.777 30.2205 59.1738 32.0419C58.5927 30.1987 58.0225 28.4665 57.511 26.7125C57.3405 26.1265 57.027 26.0216 56.5393 26.0612C56.0059 26.1047 56.158 26.5383 56.1342 26.8471C55.9912 28.7991 55.85 30.7511 55.7474 32.707C55.7309 33.0099 55.4522 33.5563 56.1012 33.594C56.7099 33.6276 56.5577 33.1168 56.5779 32.7684C56.6805 31.0282 56.7667 29.2881 56.8712 27.3143C57.467 29.2762 57.9895 31.0144 58.5248 32.7466C58.6312 33.0911 58.5908 33.59 59.1097 33.594C59.6193 33.5979 59.6065 33.105 59.7202 32.7625C60.305 31.0183 60.8788 29.2703 61.5315 27.2945C61.6323 29.3237 61.7167 31.0797 61.8083 32.8357C61.8285 33.2079 61.7552 33.6613 62.3437 33.6039C62.9212 33.5464 62.681 33.0911 62.6663 32.804C62.5673 30.8897 62.45 28.9733 62.307 27.0629V27.0589Z" fill="#5A9CFF"/>
  <path d="M50.9386 28.6545C50.9478 28.1853 50.5243 28.0309 50.4234 28.2288C49.9981 29.0702 49.6058 28.4426 49.1933 28.2961C48.4379 28.0309 47.7596 28.2071 47.1656 28.7574C46.2122 29.6404 46.0179 31.5013 46.7513 32.6258C47.4699 33.7304 48.4856 33.8512 49.9779 32.9623C49.9596 34.5104 49.4132 35.0806 48.1281 34.9598C47.8421 34.9321 47.5616 34.8331 47.2793 34.7658C47.0758 34.7183 46.9199 34.7856 46.8447 34.9975C46.7622 35.2251 46.8833 35.3419 47.0538 35.4587C48.4434 36.411 50.7039 35.3657 50.8598 33.5859C51.0009 31.9546 50.9093 30.2996 50.9386 28.6545ZM48.6102 32.8435C47.8109 32.8119 47.2334 32.014 47.2242 30.9292C47.2151 29.7869 47.8109 28.9593 48.6598 28.9336C49.5453 28.9079 50.0329 29.6126 50.0238 30.8995C50.0146 32.1487 49.4848 32.8772 48.6121 32.8416L48.6102 32.8435Z" fill="#5A9CFF"/>
  <path d="M71.6957 28.894C71.6957 27.8625 71.692 26.9677 71.6957 26.0729C71.6975 25.7304 71.56 25.5938 71.2392 25.5918C70.9128 25.5879 70.7845 25.7245 70.7845 26.0689C70.7882 28.4169 70.7918 30.7668 70.779 33.1147C70.7772 33.5661 71.1842 33.7621 71.2795 33.5482C71.7525 32.495 72.209 33.3562 72.649 33.5007C73.6152 33.8175 74.6602 33.4018 75.1863 32.4475C75.8133 31.3151 75.6868 29.6898 74.9058 28.8346C74.1285 27.9813 73.1458 27.9694 71.692 28.894H71.6957ZM73.1183 32.8514C72.1943 32.8375 71.6865 32.1427 71.6975 30.9053C71.7085 29.6957 72.2475 28.9534 73.133 28.9355C74.0313 28.9157 74.7023 29.7947 74.6767 30.9588C74.6528 32.0635 73.9947 32.8633 73.1202 32.8514H73.1183Z" fill="#5A9CFF"/>
  <path d="M31.7693 28.8762C31.7693 27.8963 31.7656 27.0391 31.7711 26.1818C31.7729 25.8314 31.7234 25.5899 31.3054 25.5879C30.8728 25.586 30.8581 25.8552 30.8581 26.1917C30.8618 28.4605 30.8618 30.7292 30.8581 32.998C30.8581 33.3345 30.8709 33.6058 31.3054 33.6038C31.7216 33.6038 31.7748 33.3622 31.7711 33.0099C31.7656 32.1883 31.7601 31.3667 31.7748 30.5451C31.7913 29.6226 32.2349 29.0346 33.0893 29.0089C33.9583 28.9831 34.2699 29.6602 34.3011 30.4857C34.3341 31.3449 34.3231 32.2061 34.3103 33.0673C34.3048 33.4771 34.4661 33.6097 34.8309 33.5998C35.1976 33.5899 35.2251 33.3543 35.2233 33.0574C35.2196 32.3526 35.2251 31.6498 35.2233 30.945C35.2141 28.3239 34.0243 27.5459 31.7693 28.8762Z" fill="#5A9CFF"/>
  <path d="M2.95848 32.8079C2.54598 32.703 1.84199 33.0059 1.74115 32.6357C1.54682 31.9131 1.55232 31.0717 1.68248 30.3214C1.77232 29.8087 2.37365 30.1769 2.72931 30.066C3.23348 29.9096 4.19415 30.4481 4.18498 29.7117C4.17398 28.8149 3.18948 29.2959 2.67798 29.3078C1.81448 29.3256 1.61465 29.0346 1.58715 28.1239C1.55598 27.0747 1.84015 26.7005 2.79348 26.8569C3.18398 26.9203 3.58915 26.8609 3.98881 26.8648C4.28764 26.8668 4.47648 26.7599 4.44714 26.3917C4.41964 26.0551 4.18498 26.0987 3.97415 26.067C0.923485 25.5998 0.710815 25.7918 0.710815 29.0425V31.1549C0.710815 33.6038 0.71082 33.6454 2.93832 33.5721C3.48832 33.5543 4.52048 34.073 4.52965 33.1643C4.53881 32.414 3.50848 32.9505 2.95665 32.8119L2.95848 32.8079Z" fill="#5A9CFF"/>
  <path d="M23.3195 32.1349C22.9381 31.0282 22.522 29.9552 22.2048 28.8466C22.0178 28.1933 21.6878 28.0784 21.0315 28.2744C21.4513 29.4167 21.8455 30.5056 22.2525 31.5865C22.9876 33.5464 23.0023 33.5583 21.554 35.0054C21.2955 35.2648 21.3285 35.4509 21.4366 35.7043C21.62 36.1359 21.8693 35.833 22.0581 35.73C22.7346 35.3618 23.1545 34.7283 23.4771 34.0136C24.3113 32.1606 24.8925 30.2046 25.415 28.1933C23.7851 28.8901 24.2471 30.9411 23.3213 32.1329L23.3195 32.1349Z" fill="#5A9CFF"/>
  <path d="M66.8446 28.1834C65.4311 28.1913 64.4338 29.3079 64.4228 30.8936C64.4118 32.4754 65.422 33.6137 66.83 33.5979C68.227 33.584 69.2536 32.4338 69.261 30.8797C69.2683 29.29 68.2691 28.1735 66.8465 28.1834H66.8446ZM66.8446 32.8456C65.9866 32.8595 65.345 32.0438 65.334 30.9292C65.323 29.7375 65.9555 28.9198 66.8776 28.9357C67.7155 28.9495 68.3571 29.8087 68.348 30.9015C68.3388 32.0022 67.6971 32.8317 66.8446 32.8456Z" fill="#5A9CFF"/>
  <path d="M44.5971 32.6812C44.6338 32.3328 44.6045 31.9765 44.6045 31.6241C44.6045 31.1925 44.6246 30.7609 44.6008 30.3313C44.4926 28.4288 43.1965 27.6548 41.6418 28.5852C41.3283 28.7733 41.123 29.0247 40.991 28.4288C40.9268 28.1457 40.6628 28.1655 40.4446 28.2111C40.1953 28.2625 40.2448 28.4941 40.2448 28.6763C40.2411 30.1254 40.2467 31.5746 40.2412 33.0237C40.2412 33.3821 40.2907 33.6157 40.7105 33.6058C41.1395 33.5959 41.156 33.3246 41.156 32.9901C41.1541 32.1685 41.1413 31.3449 41.1615 30.5234C41.1835 29.5968 41.6455 29.0208 42.4998 29.0109C43.367 29.001 43.6658 29.6741 43.6896 30.5075C43.7098 31.2123 43.664 31.919 43.708 32.6218C43.73 32.9762 43.4385 33.5563 44.1278 33.5939C44.841 33.6315 44.5605 33.0415 44.599 32.6812H44.5971Z" fill="#5A9CFF"/>
  <path d="M84.6922 28.2843C83.5519 28.607 82.8552 29.9196 83.0275 31.3291C83.2035 32.7684 84.0854 33.584 85.6785 33.5999C85.7702 33.588 86.0709 33.5999 86.3404 33.5088C86.6099 33.4197 87.0957 33.4692 86.96 32.9268C86.8354 32.4318 86.4944 32.7723 86.2469 32.804C85.508 32.903 84.782 32.9149 84.2485 32.2319C84.0175 31.9369 83.781 31.5509 83.9479 31.1688C84.089 30.8441 84.4667 31.0341 84.7362 31.0183C85.2055 30.9906 85.6767 31.0104 86.1478 31.0104C87.466 31.0104 87.7355 30.4818 87.0425 29.2148C86.5017 28.2249 85.6583 28.0111 84.694 28.2843H84.6922ZM86.4118 29.9334C86.3128 30.7293 85.53 30.0799 85.09 30.3591C84.7509 30.0799 84.0249 30.7154 84.0175 29.9493C84.012 29.3217 84.5712 28.904 85.2349 28.8901C85.9077 28.8763 86.4925 29.2861 86.4118 29.9334Z" fill="#5A9CFF"/>
  <path d="M12.963 28.2665C11.8171 28.5595 11.093 29.8602 11.2396 31.2717C11.3936 32.7605 12.303 33.6019 13.865 33.5999C13.9346 33.5959 14.1308 33.6276 14.294 33.5662C14.6295 33.4395 15.2528 33.584 15.1758 32.9842C15.0896 32.3131 14.6038 32.8377 14.305 32.8456C13.5606 32.8654 12.8365 32.8555 12.3708 32.0933C12.215 31.8379 12.0335 31.5311 12.1416 31.2203C12.2791 30.8243 12.6421 31.0401 12.8988 31.0203C13.3663 30.9827 13.8411 31.0381 14.3086 31.0005C14.7248 30.9669 15.3115 31.2539 15.5168 30.8263C15.7661 30.3056 15.5223 29.6781 15.229 29.1653C14.6955 28.2329 13.8815 28.0309 12.9611 28.2665H12.963ZM14.1565 30.3096C13.5148 30.2819 12.8695 30.3037 12.0995 30.3037C12.3121 29.4405 12.6715 28.9733 13.3681 28.8961C13.876 28.8387 14.283 29.0406 14.536 29.5355C14.7725 29.9948 14.8238 30.3393 14.1565 30.3116V30.3096Z" fill="#5A9CFF"/>
  <path d="M9.15698 28.9258C8.84165 30.0661 8.44748 31.1806 8.01665 32.5288C7.58398 31.1767 7.19165 30.0463 6.86715 28.8941C6.67832 28.221 6.36849 28.0052 5.71582 28.3259C6.26399 29.9116 6.80482 31.4855 7.35115 33.0554C7.45382 33.3484 7.55282 33.6097 7.94332 33.6117C8.37232 33.6157 8.49332 33.3484 8.61615 32.998C9.17165 31.4281 9.73998 29.8641 10.3047 28.2962C9.64465 28.0092 9.34215 28.2487 9.15515 28.9238L9.15698 28.9258Z" fill="#5A9CFF"/>
  <path d="M27.9559 26.8629C27.9559 26.8629 27.7873 26.7777 27.6938 26.7658C27.5398 26.7461 26.3829 28.5456 26.4489 28.698C26.4782 28.7634 26.5296 28.8624 26.5773 28.8683C27.3912 28.9475 27.1218 29.6186 27.1438 30.1016C27.1749 30.8025 27.1217 31.5112 27.1712 32.21C27.2317 33.0534 27.6369 33.5879 28.4766 33.6037C28.7553 33.5681 29.1164 33.681 29.1769 33.2434C29.2301 32.8713 28.9569 32.8237 28.6874 32.7861C28.1264 32.7109 28.0201 32.2793 28.0238 31.7666C28.0274 31.0638 28.0513 30.359 28.0164 29.6582C27.9889 29.096 28.1796 28.8802 28.6984 28.9237C28.9551 28.9455 29.4996 28.9198 29.2833 28.5634C28.9166 27.9616 27.5783 28.2209 27.9541 26.8648L27.9559 26.8629Z" fill="#5A9CFF"/>
  <path d="M80.6314 25.5879C80.0979 25.5741 80.1712 25.9502 80.1694 26.2927C80.1675 28.4862 80.1657 30.6797 80.1694 32.8713C80.1694 33.1999 80.0667 33.5939 80.6057 33.6018C81.1264 33.6077 81.075 33.2474 81.075 32.897C81.0769 31.8003 81.075 30.7035 81.075 29.6067C81.075 28.51 81.0787 27.4132 81.0732 26.3165C81.0714 25.9819 81.1557 25.5998 80.6277 25.586L80.6314 25.5879Z" fill="#5A9CFF"/>
  <path d="M19.6198 28.2388C19.1853 28.1121 18.8553 28.3635 18.5601 28.6763C18.4831 28.7574 18.4135 28.8465 18.298 28.9851C17.979 28.7178 18.1678 28.0289 17.5866 28.1992C17.1081 28.3417 17.3501 28.7911 17.3428 29.09C17.3135 30.3056 17.3153 31.5211 17.3391 32.7367C17.3465 33.0653 17.1246 33.578 17.7516 33.5978C18.4593 33.6216 18.2155 33.0494 18.2338 32.6832C18.2668 32.018 18.2246 31.3489 18.254 30.6837C18.2815 30.072 18.4886 29.5434 19.0203 29.2207C19.288 29.0584 19.8416 29.3019 19.7591 28.6367C19.7408 28.4941 19.6931 28.2625 19.6161 28.2407L19.6198 28.2388Z" fill="#5A9CFF"/>
  <path d="M37.6268 28.1794C37.2931 28.1893 37.1868 28.3397 37.1868 28.6723C37.1923 30.1591 37.1923 31.6458 37.1868 33.1346C37.1868 33.4909 37.3316 33.6058 37.6506 33.6018C37.9806 33.5978 38.0998 33.4434 38.0961 33.1089C38.0906 32.3645 38.0961 31.6221 38.0961 30.8777C38.0961 30.1729 38.0906 29.4682 38.0998 28.7634C38.1035 28.4051 38.0411 28.1655 37.6268 28.1774V28.1794Z" fill="#5A9CFF"/>
  <path d="M77.795 28.1773C77.3715 28.1694 77.3257 28.4109 77.3312 28.7653C77.3403 29.4701 77.333 30.1748 77.333 30.8776C77.333 31.5824 77.3348 32.2872 77.333 32.992C77.333 33.3226 77.333 33.6017 77.773 33.6037C78.1855 33.6037 78.2478 33.376 78.246 33.0177C78.2405 31.6081 78.2423 30.2006 78.246 28.791C78.246 28.4545 78.2258 28.1872 77.7987 28.1773H77.795Z" fill="#5A9CFF"/>
  <path d="M37.7625 26.0868C37.427 26.0769 37.2125 26.3224 37.2015 26.6688C37.1905 27.037 37.416 27.2251 37.7698 27.2409C38.0925 27.1855 38.296 26.9935 38.2611 26.6134C38.2336 26.3065 38.0411 26.0967 37.7625 26.0868Z" fill="#5A9CFF"/>
  <path d="M77.8757 26.0829C77.6025 26.0769 77.399 26.2907 77.355 26.5877C77.3 26.9638 77.498 27.1658 77.8134 27.235C78.1727 27.239 78.3982 27.0608 78.4092 26.6906C78.4202 26.3283 78.2039 26.0888 77.8757 26.0829Z" fill="#5A9CFF"/>
</svg>