<svg xmlns="http://www.w3.org/2000/svg" width="39" height="44" viewBox="0 0 39 44" fill="none">
  <path d="M37.9634 15.4027C37.6334 15.1018 37.2539 15.0562 36.8414 15.0622C35.8239 15.076 34.8045 15.0463 33.787 15.074C33.2902 15.0879 33.0775 14.9276 33.0629 14.3495C33.0134 12.1936 32.9364 10.0377 32.8392 7.88375C32.8117 7.2938 32.9565 7.04634 33.545 7.02654C34.7055 6.98695 35.8642 6.87608 37.021 6.7672C37.4739 6.72563 38.1705 6.78898 38.2237 6.25644C38.2897 5.59521 37.5729 5.34775 37.0779 5.21709C36.603 5.09237 36.0695 5.21907 35.5635 5.24678C34.8375 5.2844 34.1115 5.31014 33.3892 5.38339C32.8685 5.43684 32.665 5.23293 32.6687 4.66871C32.676 3.68876 32.6229 2.70682 32.6284 1.72687C32.632 1.09732 32.5935 0.447977 31.8987 0.370768C31.257 0.299499 31.1269 0.980518 30.9545 1.48138C30.5915 2.53261 30.6612 3.6452 30.6025 4.738C30.5787 5.17947 30.6025 5.59917 30.003 5.62491C28.2962 5.69618 26.5912 5.78329 24.888 5.91197C24.228 5.96146 24.1089 5.64471 24.0942 5.02704C24.063 3.73429 23.9714 2.44352 23.8925 1.15275C23.8742 0.865695 24.0062 0.453916 23.6047 0.374728C23.2857 0.311377 23.0785 0.612292 22.9117 0.865695C22.567 1.38834 22.4167 1.99611 22.3599 2.62565C22.2792 3.52246 22.182 4.42125 22.1802 5.31805C22.1802 5.92978 21.9914 6.12577 21.4359 6.15349C19.6942 6.24258 17.9544 6.36928 16.2164 6.5237C15.5399 6.58309 15.2264 6.37324 15.1677 5.59323C15.0632 4.22724 14.8872 2.86718 14.6965 1.51306C14.6415 1.12702 14.735 0.574678 14.2199 0.440058C13.7194 0.309397 13.2867 0.544983 12.9475 0.936964C12.6194 1.31707 12.4342 1.78824 12.3444 2.29702C12.1372 3.45911 12.0345 4.6311 12.2747 5.79912C12.4195 6.49994 12.2527 6.79294 11.534 6.79887C10.2269 6.81075 8.91788 6.88796 7.61622 7.0107C6.86822 7.07999 6.70872 6.74344 6.66105 6.01293C6.54922 4.26089 6.34572 2.51677 6.16605 0.614272C5.12288 1.15473 4.60038 1.7427 4.84422 2.95626C5.04955 3.98175 5.01472 5.06069 5.12105 6.11192C5.18705 6.77314 5.08805 7.12553 4.34189 7.09385C3.45639 7.05624 2.64789 7.46208 1.85405 7.8699C1.01622 8.29949 1.17572 8.78056 1.80639 9.20818C2.60205 9.74864 3.52422 9.84564 4.43355 9.79615C5.10272 9.76052 5.40888 9.94661 5.45838 10.7266C5.58855 12.837 5.77738 14.9434 5.96438 17.0478C6.01022 17.5685 5.69488 17.612 5.37222 17.6932C4.13655 18.01 2.89722 18.3089 1.67072 18.6573C1.32422 18.7563 0.803553 18.687 0.781553 19.3166C0.761386 19.863 1.07672 20.1876 1.49289 20.3915C1.88889 20.5856 2.30689 20.7043 2.75789 20.7063C3.63239 20.7103 4.50139 20.6905 5.36489 20.5143C5.89472 20.4074 6.23755 20.4687 6.27422 21.2309C6.36588 23.1077 6.51072 24.9845 6.70138 26.8513C6.77472 27.5759 6.51622 27.8214 5.92038 27.9402C4.35105 28.2549 2.78722 28.6014 1.22339 28.9498C0.726554 29.0607 -0.0232789 28.9162 0.000554462 29.7575C0.0207211 30.4801 0.68622 30.589 1.22339 30.6959C1.54055 30.7593 1.87422 30.7474 2.19872 30.7474C3.54439 30.7513 4.89005 30.7672 6.23388 30.7335C6.82238 30.7177 7.08638 30.9077 7.10472 31.5848C7.13405 32.642 7.18722 33.707 7.34122 34.7484C7.48605 35.7263 7.31738 36.0708 6.28522 36.1025C4.51605 36.1559 2.72855 36.3222 1.03639 36.9934C0.71922 37.1201 0.325054 37.2685 0.431387 37.8149C0.519387 38.2663 0.66422 38.4841 1.17572 38.593C3.00172 38.979 4.79472 38.7612 6.58772 38.4425C7.34488 38.3079 7.79222 38.4484 7.73172 39.4046C7.69872 39.9253 7.83988 40.4103 8.12955 40.8399C8.31655 41.1151 8.55488 41.2695 8.87572 41.2141C9.25705 41.1488 9.28088 40.8221 9.28822 40.4994C9.29922 40.0282 9.33772 39.5531 9.29738 39.0879C9.23322 38.3772 9.38722 38.0386 10.1535 38.0386C11.8604 38.0386 13.5672 37.9179 15.274 37.8605C15.9267 37.8387 16.682 37.6348 17.2064 37.9139C17.8884 38.2762 17.4264 39.274 17.672 39.9491C17.7949 40.2915 17.6995 40.8162 18.2037 40.8399C18.6089 40.8597 18.8619 40.4994 19.0232 40.1549C19.1662 39.8481 19.3385 39.4403 19.2615 39.1493C18.7959 37.3873 19.9032 37.6387 20.8419 37.6447C21.2049 37.6467 21.5697 37.6348 21.9327 37.6288C23.2894 37.609 24.019 38.3237 24.1217 39.7729C24.1272 39.8521 24.1272 39.9293 24.1345 40.0085C24.2115 40.9627 24.8642 40.9231 25.4985 40.9409C26.329 40.9646 26.0614 40.3153 26.0559 39.8659C26.0485 39.3591 25.9917 38.8483 25.9202 38.3455C25.8395 37.7833 26.021 37.5754 26.5582 37.5952C27.902 37.6447 29.2495 37.6783 30.5934 37.6526C31.2259 37.6407 31.4844 37.8763 31.6035 38.5494C31.8382 39.854 32.1425 41.1488 32.4707 42.4296C32.599 42.9265 32.6889 43.7046 33.292 43.6293C33.8219 43.564 33.7504 42.8236 33.7595 42.3346C33.7815 41.0399 33.809 39.7432 33.7504 38.4504C33.7174 37.7318 33.886 37.3834 34.5827 37.2705C35.5525 37.1161 36.4894 36.7756 37.384 36.3401C37.8039 36.1361 38.407 35.9322 38.3575 35.366C38.297 34.6929 37.5985 34.6969 37.131 34.6217C36.2364 34.4771 35.3234 34.4257 34.4177 34.394C33.9392 34.3782 33.6972 34.2732 33.6899 33.6754C33.6734 32.1074 33.6165 30.5395 33.5322 28.9736C33.4974 28.348 33.6532 28.0708 34.2655 27.9699C35.3747 27.7877 36.4894 27.566 37.5142 27.0295C37.8992 26.8276 38.4015 26.6336 38.2787 26.0416C38.154 25.4457 37.6847 25.325 37.1604 25.3804C36.2217 25.4833 35.2794 25.5447 34.3407 25.6635C33.7009 25.7447 33.4442 25.5487 33.4369 24.7904C33.4112 22.6345 33.3415 20.4747 33.2114 18.3227C33.1692 17.612 33.3782 17.42 33.9722 17.4299C35.25 17.4517 36.5022 17.2161 37.7434 16.9112C38.0605 16.832 38.4125 16.7548 38.4969 16.3391C38.594 15.8659 38.2457 15.6521 37.9689 15.3987L37.9634 15.4027ZM16.2017 8.6202C17.9635 8.4935 19.7235 8.32919 21.478 8.11934C21.9877 8.05797 22.1747 8.10152 22.2022 8.72117C22.2957 10.8533 22.4442 12.9835 22.589 15.1136C22.622 15.6066 22.391 15.7155 22.0134 15.7392C20.719 15.8224 19.4265 15.9154 18.0094 16.0144C17.8425 16.0144 17.5492 15.9827 17.265 16.0203C16.6875 16.0976 16.5042 15.856 16.3557 15.2285C15.9157 13.3695 15.9964 11.4413 15.6095 9.58036C15.5105 9.10523 15.5362 8.6697 16.2017 8.6202ZM7.66572 16.3153C7.48422 14.2921 7.30638 12.2688 7.09188 10.2495C7.01488 9.52889 7.43472 9.50315 7.88205 9.46158C9.03705 9.3527 10.192 9.24777 11.5725 9.12107C12.4397 8.75482 12.7917 9.28737 12.9109 10.4158C13.0814 12.0411 13.3692 13.6566 13.6699 15.2621C13.8092 16.0105 13.6094 16.2995 12.92 16.3747C11.4075 16.539 9.89322 16.7251 8.39172 16.9765C7.81055 17.0736 7.71338 16.8083 7.66938 16.3153H7.66572ZM8.56772 26.7187C8.44672 24.8459 8.23405 22.981 8.03605 21.1141C7.97555 20.5499 8.06722 20.253 8.68322 20.2134C10.2764 20.1144 11.864 19.9441 13.5232 19.7937C14.2877 19.5482 14.4729 19.9897 14.5847 20.8132C14.8212 22.5514 15.1714 24.2718 15.5252 25.9882C15.6517 26.5979 15.549 26.8276 14.9459 26.885C13.1052 27.0592 11.2664 27.2789 9.42938 27.5026C8.85188 27.5739 8.61172 27.4254 8.56588 26.7187H8.56772ZM16.451 35.3621C14.6764 35.4927 12.9054 35.6551 11.6294 35.764C9.98305 35.8115 9.12994 35.139 9.07005 33.7466C9.05905 33.4715 9.04988 33.1983 9.02971 32.9251C8.92094 31.4205 9.54855 30.585 10.9125 30.4188C12.282 30.2505 13.6589 30.1258 15.0192 29.8961C15.9249 29.7437 16.341 30.0367 16.451 31.0424C16.5775 32.2044 16.7774 33.3646 17.0432 34.4989C17.199 35.1641 17.0102 35.3205 16.4529 35.3621H16.451ZM17.4429 23.8936C17.2742 22.6939 17.1257 21.4903 16.9515 20.2906C16.8764 19.7699 16.9735 19.5007 17.5382 19.465C19.0599 19.372 20.5797 19.2314 22.0977 19.081C22.6404 19.0275 22.765 19.2948 22.8164 19.8174C22.996 21.6882 23.205 23.5551 23.4305 25.42C23.524 26.1842 23.3774 26.6118 22.5487 26.5425C21.863 26.4851 21.1682 26.5306 20.4789 26.5306C18.7152 26.6164 17.7032 25.7381 17.4429 23.8956V23.8936ZM23.4617 34.788C22.1252 34.8592 20.7887 34.9661 19.4577 35.1126C18.9902 35.1641 18.7794 35.0176 18.7244 34.5365C18.5649 33.1428 18.4127 31.7471 18.2294 30.3554C18.1579 29.805 18.3082 29.5853 18.8435 29.5695C19.674 29.5457 20.5027 29.4408 21.3332 29.3715C23.4012 29.324 23.392 29.326 23.6872 31.4898C23.7917 32.2599 23.931 33.026 24.0869 33.7882C24.2097 34.3861 24.1437 34.7523 23.4599 34.7899L23.4617 34.788ZM24.5984 14.6999C24.5232 12.7063 24.4187 10.7128 24.3014 8.72117C24.2684 8.15101 24.4059 7.83426 24.9797 7.78675C26.6059 7.65213 28.232 7.50365 29.8564 7.3334C30.4449 7.27202 30.6227 7.53137 30.608 8.13122C30.5805 9.18838 30.6007 10.2455 30.6007 11.3027H30.6135C30.6135 12.3203 30.597 13.3398 30.6209 14.3574C30.6319 14.8444 30.498 15.0562 30.0159 15.078C28.4575 15.1473 26.901 15.2403 25.3464 15.367C24.844 15.4086 24.6204 15.2879 24.5984 14.6999ZM25.218 25.4695C25.1557 23.5116 25.0512 21.5536 24.921 19.5997C24.888 19.1047 24.9889 18.887 25.4564 18.8137C26.8919 18.59 28.3237 18.3425 29.7537 18.0812C30.4027 17.9624 30.6795 18.1446 30.6355 18.9226C30.575 19.9778 30.6209 21.0389 30.6209 22.098H30.6117C30.6117 23.1572 30.6007 24.2163 30.6172 25.2755C30.6245 25.7803 30.5219 26.0891 29.97 26.1089C28.6647 26.1545 27.3575 26.2238 26.054 26.3267C25.4325 26.3762 25.24 26.1267 25.218 25.4695ZM30.5952 31.367C30.5744 33.4774 29.6633 34.5431 27.8617 34.5643C26.4024 34.5814 25.6562 33.8179 25.6232 32.2737C25.6159 31.9609 25.6177 31.6462 25.603 31.3334C25.537 29.9436 26.1359 29.163 27.3997 28.9914C27.616 28.9617 27.8342 28.9498 28.0505 28.9498C28.87 28.9498 29.8949 28.2252 30.432 28.8667C30.96 29.4942 30.5127 30.6682 30.5934 31.3651L30.5952 31.367Z" fill="#E4D52B"/>
</svg>