<svg xmlns="http://www.w3.org/2000/svg" width="18" height="16" viewBox="0 0 18 16" fill="none">
  <path fill-rule="evenodd" clip-rule="evenodd" d="M10.106 6.58816C10.4872 6.08879 10.9837 5.68915 11.5529 5.42341C12.1222 5.15766 12.7474 5.03371 13.375 5.06216C13.8781 5.07178 14.3744 5.18057 14.8354 5.3823C15.2963 5.58403 15.713 5.87475 16.0615 6.23778C16.4099 6.60081 16.6833 7.02903 16.866 7.4979C17.0486 7.96677 17.137 8.46708 17.126 8.97016C17.221 11.0152 17.154 13.0702 17.168 15.1152C17.168 15.6062 16.941 15.7902 16.468 15.7782C15.836 15.7622 15.202 15.7472 14.568 15.7842C13.934 15.8212 13.705 15.5702 13.716 14.9482C13.741 13.5572 13.725 12.1662 13.723 10.7752C13.723 10.3962 13.723 10.0152 13.697 9.63816C13.7087 9.39631 13.6709 9.15461 13.586 8.92787C13.501 8.70112 13.3706 8.49411 13.2029 8.31951C13.0351 8.14491 12.8335 8.0064 12.6103 7.91245C12.3871 7.81851 12.1471 7.77111 11.905 7.77316C11.3919 7.78159 10.9032 7.99303 10.5457 8.36116C10.1883 8.72929 9.9913 9.22409 9.99799 9.73716C9.97099 11.3812 9.98699 13.0252 9.98399 14.6692C9.98399 15.7692 9.98399 15.7692 8.89399 15.7772C6.54399 15.7922 6.54499 15.7922 6.54399 13.4412C6.54399 11.0412 6.56099 8.63516 6.52599 6.23316C6.51599 5.53316 6.74799 5.25916 7.44199 5.32416C7.84199 5.36216 8.25099 5.32416 8.65599 5.33016C9.86399 5.33516 9.86399 5.33616 10.106 6.58816ZM1.07099 10.5102C1.07099 9.06916 1.09699 7.62716 1.05899 6.18816C1.04199 5.51516 1.29899 5.28216 1.94799 5.32216C2.57799 5.36116 3.21199 5.34416 3.84799 5.33016C4.32199 5.32016 4.53699 5.51316 4.53499 6.00316C4.52366 9.03649 4.52132 12.0698 4.52799 15.1032C4.52799 15.5892 4.31899 15.7892 3.84099 15.7792C3.15899 15.7642 2.47499 15.7592 1.79399 15.7792C1.27099 15.7962 1.07399 15.5732 1.07999 15.0582C1.09699 13.5412 1.08599 12.0242 1.08599 10.5082L1.07099 10.5102ZM2.76499 3.82516C2.51808 3.83921 2.27088 3.8032 2.03824 3.7193C1.80559 3.6354 1.59231 3.50534 1.4112 3.33694C1.23009 3.16853 1.08489 2.96525 0.984326 2.73931C0.88376 2.51337 0.829902 2.26944 0.825989 2.02216C0.830391 1.77512 0.884343 1.53147 0.984649 1.30566C1.08495 1.07985 1.22957 0.876471 1.40993 0.707584C1.59029 0.538698 1.80271 0.407737 2.03462 0.322465C2.26652 0.237192 2.51319 0.199343 2.75999 0.211161C3.01278 0.185136 3.26822 0.212724 3.50963 0.292124C3.75103 0.371524 3.97298 0.500951 4.16097 0.671953C4.34896 0.842955 4.49876 1.05169 4.6006 1.28452C4.70244 1.51735 4.75403 1.76904 4.75199 2.02316C4.75653 2.27715 4.70672 2.52917 4.60589 2.76232C4.50507 2.99548 4.35556 3.20439 4.16739 3.37504C3.97922 3.54569 3.75674 3.67414 3.51487 3.75177C3.273 3.8294 3.01732 3.85442 2.76499 3.82516Z" fill="white"/>
</svg>